<?xml version="1.0" encoding="utf-8"?>
<!-- Generator: Adobe Illustrator 19.0.0, SVG Export Plug-In . SVG Version: 6.00 Build 0)  -->
<svg version="1.1" id="Layer_1" xmlns:svg="http://www.w3.org/2000/svg"
	 xmlns="http://www.w3.org/2000/svg" xmlns:xlink="http://www.w3.org/1999/xlink" x="0px" y="0px" width="100.5px" height="100.5px"
	 viewBox="-138.1 250.8 100.5 100.5" style="enable-background:new -138.1 250.8 100.5 100.5;" xml:space="preserve">
<style type="text/css">
	.st0{fill:url(#SVGID_1_);}
	.st1{fill:url(#SVGID_2_);}
</style>
<g>
	
		<linearGradient id="SVGID_1_" gradientUnits="userSpaceOnUse" x1="-301.5461" y1="603.5991" x2="-300.5461" y2="603.5991" gradientTransform="matrix(0 97.3966 97.3966 0 -58884.7383 29621.9512)">
		<stop  offset="0" style="stop-color:#FF1B2D"/>
		<stop  offset="0.3" style="stop-color:#FF1B2D"/>
		<stop  offset="0.61" style="stop-color:#FF1B2D"/>
		<stop  offset="1" style="stop-color:#A70014"/>
	</linearGradient>
	<path class="st0" d="M-87.9,250.8c-27.8,0-50.2,22.5-50.2,50.2l0,0c0,27,21.2,48.9,47.9,50.2l0,0c0.8,0,1.6,0.1,2.4,0.1l0,0
		c12.9,0,24.6-4.8,33.5-12.8l0,0c-5.9,3.9-12.8,6.1-20.1,6.1l0,0c-12,0-22.7-5.9-29.9-15.3l0,0c-5.6-6.5-9.2-16.2-9.4-27.1l0,0
		c0,0,0-2.3,0-2.4l0,0c0.2-10.9,3.8-20.6,9.4-27.1l0,0c7.2-9.4,17.9-15.3,29.9-15.3l0,0c7.4,0,14.2,2.2,20.1,6.2l0,0
		c-8.8-7.9-20.5-12.7-33.3-12.8l0,0C-87.7,250.8-87.8,250.8-87.9,250.8z"/>
	
		<linearGradient id="SVGID_2_" gradientUnits="userSpaceOnUse" x1="-301.2255" y1="603.8079" x2="-300.2255" y2="603.8079" gradientTransform="matrix(0 86.1425 86.1425 0 -52084.5508 26206.4531)">
		<stop  offset="0" style="stop-color:#9C0000"/>
		<stop  offset="0.7" style="stop-color:#FF4B4B"/>
		<stop  offset="1" style="stop-color:#FF4B4B"/>
	</linearGradient>
	<path class="st1" d="M-104.4,272.7c4.6-5.4,10.6-8.7,17.1-8.7l0,0c14.6,0,26.5,16.6,26.5,37l0,0c0,20.5-11.9,37-26.5,37l0,0
		c-6.5,0-12.5-3.3-17.1-8.7l0,0c7.2,9.4,17.9,15.3,29.9,15.3l0,0c7.4,0,14.2-2.2,20.1-6.1l0,0c10.3-9.2,16.8-22.6,16.8-37.5l0,0
		c0-14.9-6.5-28.3-16.8-37.5l0,0c-5.9-3.9-12.8-6.1-20.1-6.1l0,0C-86.5,257.4-97.2,263.3-104.4,272.7"/>
</g>
</svg>
