<?xml version="1.0" encoding="utf-8"?>
<!-- Generator: Adobe Illustrator 19.0.0, SVG Export Plug-In . SVG Version: 6.00 Build 0)  -->
<svg version="1.1" id="Layer_1" xmlns="http://www.w3.org/2000/svg" xmlns:xlink="http://www.w3.org/1999/xlink" x="0px" y="0px"
	 width="512px" height="512px" viewBox="-43 45 512 512" style="enable-background:new -43 45 512 512;" xml:space="preserve">
<style type="text/css">
	.st0{fill:url(#SVGID_1_);}
	.st1{fill:#FF0000;}
	.st2{fill:#FFFFFF;}
	.st3{fill:none;stroke:#FFFFFF;stroke-width:3;}
</style>
<g>
	
		<linearGradient id="SVGID_1_" gradientUnits="userSpaceOnUse" x1="-85.404" y1="601.9755" x2="-85.404" y2="600.8326" gradientTransform="matrix(448 0 0 -448 38474 269730)">
		<stop  offset="0" style="stop-color:#19D7FF"/>
		<stop  offset="1" style="stop-color:#1E64F0"/>
	</linearGradient>
	<circle class="st0" cx="213" cy="301" r="256"/>
</g>
<path class="st1" d="M366,147L194,282l40,40L366,147z"/>
<path class="st2" d="M59,454l135-172l40,40L59,454z"/>
<line class="st3" x1="213" y1="99" x2="213" y2="132"/>
<line class="st3" x1="213" y1="469" x2="213" y2="502"/>
<line class="st3" x1="248" y1="102.1" x2="242.3" y2="134.6"/>
<line class="st3" x1="183.7" y1="466.4" x2="178" y2="498.9"/>
<line class="st3" x1="281.9" y1="111.2" x2="270.6" y2="142.2"/>
<line class="st3" x1="155.4" y1="458.8" x2="144.1" y2="489.8"/>
<line class="st3" x1="178" y1="102.1" x2="183.7" y2="134.6"/>
<line class="st3" x1="242.3" y1="466.4" x2="248" y2="498.9"/>
<line class="st3" x1="144.1" y1="111.2" x2="155.4" y2="142.2"/>
<line class="st3" x1="270.6" y1="458.8" x2="281.9" y2="489.8"/>
<line class="st3" x1="112.2" y1="126" x2="128.8" y2="154.6"/>
<line class="st3" x1="297.3" y1="446.4" x2="313.8" y2="475"/>
<line class="st3" x1="83.5" y1="146.1" x2="104.7" y2="171.4"/>
<line class="st3" x1="321.3" y1="429.6" x2="342.5" y2="454.9"/>
<line class="st3" x1="58.6" y1="171" x2="83.9" y2="192.2"/>
<line class="st3" x1="342.1" y1="408.8" x2="367.4" y2="430"/>
<line class="st3" x1="38.5" y1="199.8" x2="67.1" y2="216.3"/>
<line class="st3" x1="358.9" y1="384.8" x2="387.5" y2="401.3"/>
<line class="st3" x1="23.7" y1="231.6" x2="54.7" y2="242.9"/>
<line class="st3" x1="371.3" y1="358.1" x2="402.3" y2="369.4"/>
<line class="st3" x1="14.6" y1="265.5" x2="47.1" y2="271.2"/>
<line class="st3" x1="378.9" y1="329.8" x2="411.4" y2="335.5"/>
<line class="st3" x1="11.5" y1="300.5" x2="44.5" y2="300.5"/>
<line class="st3" x1="381.5" y1="300.5" x2="414.5" y2="300.5"/>
<line class="st3" x1="14.6" y1="335.5" x2="47.1" y2="329.8"/>
<line class="st3" x1="378.9" y1="271.2" x2="411.4" y2="265.5"/>
<line class="st3" x1="23.7" y1="369.4" x2="54.7" y2="358.1"/>
<line class="st3" x1="371.3" y1="242.9" x2="402.3" y2="231.6"/>
<line class="st3" x1="38.5" y1="401.3" x2="67.1" y2="384.8"/>
<line class="st3" x1="358.9" y1="216.3" x2="387.5" y2="199.8"/>
<line class="st3" x1="58.6" y1="430" x2="83.9" y2="408.8"/>
<line class="st3" x1="342.1" y1="192.2" x2="367.4" y2="171"/>
<line class="st3" x1="83.5" y1="454.9" x2="104.7" y2="429.6"/>
<line class="st3" x1="321.3" y1="171.4" x2="342.5" y2="146.1"/>
<line class="st3" x1="112.2" y1="475" x2="128.8" y2="446.4"/>
<line class="st3" x1="297.3" y1="154.6" x2="313.8" y2="126"/>
<line class="st3" x1="195.4" y1="99.8" x2="197" y2="117.7"/>
<line class="st3" x1="229" y1="483.3" x2="230.6" y2="501.2"/>
<line class="st3" x1="160.8" y1="105.9" x2="165.5" y2="123.3"/>
<line class="st3" x1="260.5" y1="477.7" x2="265.2" y2="495.1"/>
<line class="st3" x1="127.8" y1="117.9" x2="135.4" y2="134.2"/>
<line class="st3" x1="290.5" y1="466.8" x2="298.2" y2="483.1"/>
<line class="st3" x1="97.4" y1="135.4" x2="107.7" y2="150.2"/>
<line class="st3" x1="318.3" y1="450.8" x2="328.6" y2="465.6"/>
<line class="st3" x1="70.5" y1="158" x2="83.2" y2="170.7"/>
<line class="st3" x1="342.8" y1="430.3" x2="355.5" y2="443"/>
<line class="st3" x1="47.9" y1="184.9" x2="62.7" y2="195.2"/>
<line class="st3" x1="363.3" y1="405.8" x2="378.1" y2="416.1"/>
<line class="st3" x1="30.4" y1="215.3" x2="46.7" y2="222.9"/>
<line class="st3" x1="379.3" y1="378" x2="395.6" y2="385.7"/>
<line class="st3" x1="18.4" y1="248.3" x2="35.8" y2="253"/>
<line class="st3" x1="390.2" y1="348" x2="407.6" y2="352.7"/>
<line class="st3" x1="12.3" y1="282.9" x2="30.2" y2="284.5"/>
<line class="st3" x1="395.8" y1="316.5" x2="413.7" y2="318.1"/>
<line class="st3" x1="12.3" y1="318.1" x2="30.2" y2="316.5"/>
<line class="st3" x1="395.8" y1="284.5" x2="413.7" y2="282.9"/>
<line class="st3" x1="18.4" y1="352.7" x2="35.8" y2="348"/>
<line class="st3" x1="390.2" y1="253" x2="407.6" y2="248.3"/>
<line class="st3" x1="30.4" y1="385.7" x2="46.7" y2="378.1"/>
<line class="st3" x1="379.3" y1="222.9" x2="395.6" y2="215.3"/>
<line class="st3" x1="47.9" y1="416.1" x2="62.7" y2="405.8"/>
<line class="st3" x1="363.3" y1="195.2" x2="378.1" y2="184.9"/>
<line class="st3" x1="97.4" y1="465.6" x2="107.7" y2="450.8"/>
<line class="st3" x1="318.2" y1="150.2" x2="328.6" y2="135.4"/>
<line class="st3" x1="127.8" y1="483.1" x2="135.5" y2="466.8"/>
<line class="st3" x1="290.5" y1="134.2" x2="298.2" y2="117.9"/>
<line class="st3" x1="160.8" y1="495.1" x2="165.5" y2="477.7"/>
<line class="st3" x1="260.5" y1="123.3" x2="265.2" y2="105.9"/>
<line class="st3" x1="195.4" y1="501.2" x2="197" y2="483.3"/>
<line class="st3" x1="229" y1="117.7" x2="230.6" y2="99.8"/>
</svg>
