<?xml version="1.0" encoding="utf-8"?>
<!-- Generator: Adobe Illustrator 16.0.0, SVG Export Plug-In . SVG Version: 6.00 Build 0)  -->
<!DOCTYPE svg PUBLIC "-//W3C//DTD SVG 1.1//EN" "http://www.w3.org/Graphics/SVG/1.1/DTD/svg11.dtd">
<svg version="1.1" id="Layer_1" xmlns="http://www.w3.org/2000/svg" xmlns:xlink="http://www.w3.org/1999/xlink" x="0px" y="0px"
	 width="500px" height="255px" viewBox="0 0 500 255" enable-background="new 0 0 500 255" xml:space="preserve">
<g>
	<path fill="#FAC819" d="M499.936,63.065c0.008-5.698-2.882-8.81-10.369-12.812L407.091,0.042L407.07,0L300.364,0.042H17.11v0.111
		C7.665,0.148-0.007,7.808,0,17.25l0.079,220.682c-0.003,9.398,7.622,17.012,17.031,17.066V255h389.981v-0.154h0.066l82.47-50.271
		c6.492-3.492,9.499-6.291,10.191-10.688L500,194.24L499.936,63.065z M462.67,141.58c-7.852,0.922-14.964-4.68-15.888-12.516
		c-0.924-7.832,4.692-14.929,12.542-15.85c7.851-0.923,14.965,4.68,15.889,12.513S470.521,140.66,462.67,141.58z"/>
	<g>
		<g>
			<path d="M46.293,202.789v-62.895h48.918v14.676H66.909v11.443h22.537v14.676H66.909v22.1H46.293z"/>
			<path d="M124.037,180.863v21.926h-20.616v-62.895h29.7c10.25,0,17.456,1.412,21.62,4.236c4.163,2.824,6.246,7.381,6.246,13.672
				c0,3.785-0.889,7.045-2.664,9.781c-1.777,2.738-4.411,4.602-7.905,5.592c2.097,0.758,3.713,1.439,4.848,2.053
				c1.135,0.611,2.153,1.473,3.057,2.576c0.902,1.107,1.586,2.621,2.053,4.543c0.465,1.922,0.699,4.428,0.699,7.512
				c0,4.717,0.116,7.73,0.349,9.043c0.232,1.309,0.844,1.965,1.834,1.965v1.922h-20.877c-0.292-0.756-0.539-2.141-0.743-4.148
				c-0.205-2.012-0.306-4.295-0.306-6.857c0-2.213-0.131-3.99-0.393-5.33c-0.263-1.34-0.772-2.416-1.529-3.232
				c-0.758-0.814-1.85-1.41-3.276-1.791c-1.428-0.377-3.363-0.566-5.809-0.566H124.037z M124.037,167.061h8.124
				c3.319,0,5.779-0.467,7.381-1.398c1.602-0.93,2.402-2.445,2.402-4.541c0-2.154-0.757-3.785-2.271-4.891
				c-1.515-1.107-3.524-1.66-6.027-1.66h-9.609V167.061z"/>
			<path d="M172.693,202.789v-62.895h20.615v62.895H172.693z"/>
			<path d="M205.712,202.789v-62.895h27.604c10.424,0,18.505,2.488,24.241,7.469c5.735,4.979,8.604,12.535,8.604,22.668
				c0,5.824-0.772,10.816-2.314,14.98c-1.543,4.164-3.771,7.557-6.683,10.178c-2.913,2.619-6.407,4.541-10.482,5.764
				c-4.077,1.225-8.707,1.836-13.889,1.836H205.712z M226.328,188.111h4.367c4.892,0,8.589-1.365,11.094-4.104
				c2.502-2.736,3.756-7.018,3.756-12.842c0-6.406-1.135-10.773-3.406-13.104c-2.271-2.328-6.232-3.492-11.88-3.492h-3.931V188.111z
				"/>
			<path d="M268.955,202.789l22.537-62.895h20.966l22.537,62.895h-20.528l-2.445-8.299h-20.529l-2.357,8.299H268.955z
				 M301.801,158.85l-6.377,22.539h13.016L301.801,158.85z"/>
			<path d="M373.78,202.789h-20.615v-22.887l-23.41-40.008h23.062l10.832,21.314l10.831-21.314h22.712l-23.411,39.658V202.789z"/>
		</g>
		<g>
			<path d="M46.243,120.932V53.979h31.988c4.029,0,7.656,0.264,10.88,0.79c3.222,0.527,6.044,1.428,8.462,2.697
				c2.418,1.271,4.309,3.007,5.673,5.208c1.362,2.2,2.045,4.913,2.045,8.136c0,3.162-0.853,5.998-2.558,8.509
				c-1.706,2.512-3.766,4.542-6.184,6.091c3.534,0.93,6.277,2.789,8.23,5.58c1.953,2.789,2.929,6.043,2.929,9.763
				c0,3.659-0.667,6.788-1.999,9.392c-1.334,2.604-3.255,4.696-5.765,6.277c-2.511,1.581-5.519,2.729-9.02,3.44
				c-3.503,0.714-7.518,1.069-12.042,1.069H46.243z M68.188,69.602v11.159h9.113c2.232,0,4.045-0.511,5.44-1.535
				c1.396-1.022,2.092-2.464,2.092-4.323c0-2.355-0.729-3.827-2.185-4.417c-1.458-0.589-3.705-0.884-6.742-0.884H68.188z
				 M68.188,92.942v12.367h9.578c3.037,0,5.377-0.449,7.021-1.348c1.641-0.899,2.464-2.495,2.464-4.79
				c0-2.664-0.977-4.37-2.929-5.113c-1.953-0.744-5.007-1.116-9.16-1.116H68.188z"/>
			<path d="M118.961,120.932V53.979h21.946v51.33h30.128v15.622H118.961z"/>
			<path d="M174.94,120.932l23.991-66.952h22.318l23.991,66.952h-21.853l-2.604-8.833h-21.853l-2.511,8.833H174.94z M209.904,74.158
				l-6.788,23.991h13.855L209.904,74.158z"/>
			<path d="M294.525,79.552c-0.312-3.471-1.521-6.168-3.627-8.09c-2.108-1.922-4.867-2.884-8.276-2.884
				c-3.905,0-6.943,1.661-9.112,4.976c-2.171,3.317-3.255,8.169-3.255,14.554c0,2.604,0.186,4.96,0.558,7.066
				c0.373,2.108,1.023,4.015,1.953,5.719c0.93,1.706,2.277,3.038,4.045,3.998c1.767,0.962,3.982,1.442,6.648,1.442
				c3.348,0,5.951-1.038,7.811-3.115c1.861-2.076,3.007-4.82,3.441-8.23h21.109c-0.993,8.617-4.356,15.391-10.09,20.318
				c-5.734,4.93-13.035,7.393-21.899,7.393c-5.456,0-10.384-0.806-14.785-2.416c-4.402-1.612-8.152-3.968-11.252-7.068
				c-3.101-3.1-5.456-6.834-7.067-11.205c-1.613-4.37-2.417-9.253-2.417-14.646c0-5.33,0.851-10.166,2.556-14.506
				c1.705-4.339,4.076-8.059,7.115-11.159c3.036-3.1,6.586-5.454,10.646-7.065c4.061-1.613,8.416-2.42,13.065-2.42
				c10.104,0,18.024,2.372,23.759,7.115c5.733,4.741,9.035,11.483,9.903,20.225H294.525z"/>
			<path d="M325.584,53.979h21.945v21.667l19.249-21.667h25.759L368.08,79.181l27.061,41.751h-26.316l-16.088-26.687l-5.207,5.485
				v21.201h-21.945V53.979z"/>
		</g>
	</g>
</g>
</svg>
