<?xml version="1.0" standalone="no"?>
<!DOCTYPE svg PUBLIC "-//W3C//DTD SVG 1.1//EN" "http://www.w3.org/Graphics/SVG/1.1/DTD/svg11.dtd" >
<svg xmlns="http://www.w3.org/2000/svg">
<metadata></metadata>
<defs>
<font id="neuron_heavyitalic" horiz-adv-x="950" >
<font-face units-per-em="2048" ascent="1536" descent="-512" />
<missing-glyph horiz-adv-x="440" />
<glyph horiz-adv-x="2048" />
<glyph horiz-adv-x="2048" />
<glyph horiz-adv-x="682" />
<glyph unicode="&#xd;" horiz-adv-x="868" />
<glyph unicode=" "  horiz-adv-x="440" />
<glyph unicode="&#x09;" horiz-adv-x="440" />
<glyph unicode="&#xa0;" horiz-adv-x="440" />
<glyph unicode="!" horiz-adv-x="454" d="M25 68q0 36 8 102q7 69 37 87.5t131 18.5q87 0 117 -13.5t30 -53.5t-8 -103q-7 -70 -37 -88t-131 -18q-87 0 -117 14t-30 54zM88 436q0 30 6 115l43 649q3 53 37.5 68.5t128.5 15.5q87 0 117.5 -12.5t30.5 -54.5q0 -12 -15 -123l-88 -650q-7 -54 -32.5 -69t-102.5 -15 q-69 0 -97 14t-28 62z" />
<glyph unicode="&#x22;" horiz-adv-x="733" d="M92 799q0 300 8 391q6 58 36.5 76t129.5 18q83 0 112.5 -14.5t29.5 -55.5q0 -47 -26.5 -173.5t-57.5 -241.5q-9 -39 -33 -52.5t-88 -13.5t-87.5 14t-23.5 52zM459 799q0 278 10 391q6 58 36 76t128 18q85 0 114 -14.5t29 -55.5q0 -47 -26.5 -173.5t-57.5 -241.5 q-9 -39 -34 -52.5t-87 -13.5q-65 0 -88.5 14t-23.5 52z" />
<glyph unicode="#" d="M27 379q0 88 16 121q18 35 61 35h70l25 239h-76q-28 0 -39.5 10t-11.5 39q0 81 16 121q17 35 62 35h71l17 158q6 55 31.5 70.5t97.5 15.5q65 0 89.5 -12.5t24.5 -51.5q0 -4 -3.5 -30.5t-4.5 -41.5l-12 -108h137l16 158q6 55 31.5 70.5t97.5 15.5q65 0 90 -12.5t25 -51.5 q0 -18 -8 -72l-12 -108h80q28 0 38.5 -10t10.5 -39q0 -86 -17 -121q-18 -35 -61 -35h-72l-24 -239h77q28 0 40 -10.5t12 -39.5q0 -77 -17 -120q-17 -35 -63 -35h-72l-16 -164q-6 -54 -31.5 -69t-97.5 -15q-66 0 -90.5 11t-24.5 50q0 18 8 72l12 115h-137l-16 -164 q-6 -54 -31.5 -69t-97.5 -15q-66 0 -90.5 11t-24.5 50q0 18 8 72l13 115h-78q-28 0 -38.5 10t-10.5 39zM416 535h135l24 239h-135z" />
<glyph unicode="$" d="M16 113q0 72 21 124t53 52q12 0 92 -13.5t154 -13.5q135 0 180 31q23 17 36 51.5t13 73.5q0 34 -17 55.5t-65 42.5l-196 84q-80 33 -123 96t-43 172q0 81 22 160t58 129q75 105 237 129l11 103q6 47 36 61t111 14q76 0 103.5 -11t27.5 -48q0 -19 -6 -62l-6 -59 q94 -13 155 -29q20 -5 28.5 -18.5t8.5 -52.5q0 -71 -10 -115.5t-24 -60t-31 -15.5q-3 0 -84 13.5t-166 13.5q-62 0 -99.5 -8.5t-54.5 -34.5q-16 -26 -16 -68q0 -31 16.5 -48.5t55.5 -33.5l192 -84q62 -28 99 -57.5t59 -80t22 -124.5q0 -304 -190 -420q-48 -32 -129 -53 l-15 -139q-6 -47 -36 -60.5t-113 -13.5q-74 0 -101.5 11.5t-27.5 46.5q0 20 6 63l8 76q-124 10 -196 33q-30 8 -43 26t-13 62z" />
<glyph unicode="%" horiz-adv-x="1150" d="M57 37q0 27 41 86l381 559q-59 -20 -149 -20q-140 0 -192 42.5t-52 165.5q0 125 18.5 206.5t59.5 127t95.5 63t137.5 17.5q134 0 189 -43t55 -168q0 -101 -12 -172l223 326q22 33 53.5 45t114.5 12q56 0 80 -9t24 -30q0 -24 -43 -84l-379 -557q62 19 138 19 q135 0 190 -42.5t55 -168.5q0 -122 -16.5 -201t-55 -126.5t-94.5 -66t-143 -18.5q-140 0 -194 42.5t-54 162.5q0 89 9 157l-207 -305q-23 -34 -54 -45.5t-114 -11.5q-56 0 -80.5 8.5t-24.5 28.5zM293 901q0 -38 11.5 -50.5t45.5 -12.5q32 0 49 15t27 61.5t10 134.5 q0 34 -13 45.5t-46 11.5q-31 0 -48 -14t-26.5 -59.5t-9.5 -131.5zM735 236q0 -34 13 -47t45 -13q31 0 48.5 14.5t27.5 61t10 133.5q0 36 -12 47.5t-46 11.5q-31 0 -48 -13.5t-27.5 -59.5t-10.5 -135z" />
<glyph unicode="&#x26;" horiz-adv-x="1056" d="M25 266q0 90 23.5 173t64.5 126q75 75 215 78q-96 10 -143.5 75.5t-47.5 160.5q0 104 23 189.5t63 129.5q50 55 124.5 75.5t178.5 20.5q176 0 336 -37q26 -7 35.5 -19.5t9.5 -51.5q0 -182 -69 -182q-11 0 -107.5 12t-157.5 12q-76 0 -98 -35q-13 -20 -22 -59.5t-9 -75.5 q0 -57 31.5 -83.5t112.5 -26.5h86l8 67q6 56 28 70t103 14q70 0 92.5 -10t22.5 -43q0 -14 -6 -76l-2 -22h71q29 0 40 -11t11 -43q0 -98 -16.5 -131t-56.5 -33h-60l-26 -254q-8 -72 -34.5 -124t-64 -83.5t-95.5 -50t-118 -24.5t-141 -6q-107 0 -179 12t-125 43t-77 85.5 t-24 137.5zM346 338q0 -49 28 -70.5t99 -21.5q88 0 119 24.5t37 87.5l18 172h-96q-121 0 -162 -41q-43 -43 -43 -151z" />
<glyph unicode="'" horiz-adv-x="364" d="M92 799q0 300 8 391q6 58 36.5 76t129.5 18q83 0 112.5 -14.5t29.5 -55.5q0 -47 -26.5 -173.5t-57.5 -241.5q-9 -39 -33 -52.5t-88 -13.5t-87.5 14t-23.5 52z" />
<glyph unicode="(" horiz-adv-x="503" d="M66 444q0 202 48 413t130 384q41 86 81 117t117 31q67 0 91 -13t24 -35q0 -25 -29.5 -109.5t-64.5 -189t-64.5 -287t-29.5 -380.5q0 -103 10.5 -193.5t21.5 -147t11 -77.5q0 -66 -127 -66q-78 0 -114 31.5t-58 116.5q-47 183 -47 405z" />
<glyph unicode=")" horiz-adv-x="503" d="M-31 -59q0 22 19.5 77t47.5 137t55.5 185.5t47 253.5t19.5 311q0 140 -20.5 274.5t-20.5 143.5q0 66 125 66q80 0 115 -31.5t57 -116.5q47 -198 47 -405q0 -205 -47 -417t-129 -380q-41 -86 -81 -117t-120 -31q-115 0 -115 50z" />
<glyph unicode="*" horiz-adv-x="778" d="M70 948q0 22 28 92q23 53 40 73t36 20t78 -19q61 -20 86 -41q-2 6 -2 21q0 16 14 141q3 34 27.5 46.5t95.5 12.5q65 0 88 -10.5t23 -36.5q0 -2 -13 -131q-3 -23 -10 -41q19 12 39 19q109 36 129 36q27 0 39 -34q31 -80 31 -133q0 -27 -10.5 -39.5t-34.5 -18.5l-107 -31 q-21 -8 -37 -8q16 -13 27 -32l53 -89q12 -20 12 -34q0 -27 -73 -82q-70 -49 -99 -49q-20 0 -36 26l-60 99q-8 12 -16 40q-6 -21 -25 -43l-80 -96q-20 -26 -43 -26q-29 0 -87 49.5t-58 77.5q0 19 22 45l99 112q-12 0 -31 8l-109 37q-21 7 -28.5 14t-7.5 25z" />
<glyph unicode="+" d="M113 492q0 104 18 139t62 35h161l21 182q6 49 31.5 62.5t109.5 13.5q76 0 101.5 -10.5t25.5 -45.5q0 -48 -6 -94l-12 -108h161q32 0 44 -12t12 -46q0 -104 -18 -140t-62 -36h-164l-18 -182q-4 -49 -30.5 -62.5t-111.5 -13.5q-77 0 -102 10.5t-25 46.5q0 35 8 93l11 108 h-162q-31 0 -43 12.5t-12 47.5z" />
<glyph unicode="," horiz-adv-x="411" d="M-55 -248q0 24 23.5 120.5t27.5 141.5l14 148q8 71 38.5 91.5t131.5 20.5q89 0 117.5 -15t28.5 -64q0 -21 -7 -86q-4 -56 -25.5 -114t-78.5 -179q-36 -76 -69 -95.5t-117 -19.5q-52 0 -68 12t-16 39z" />
<glyph unicode="-" horiz-adv-x="671" d="M37 444q0 38 6.5 86.5t17.5 69.5q20 47 78 47h432q37 0 51.5 -13.5t14.5 -51.5q0 -35 -7.5 -84.5t-17.5 -71.5q-20 -47 -77 -47h-433q-37 0 -51 13t-14 52z" />
<glyph unicode="." horiz-adv-x="415" d="M6 80q0 14 12 119q5 49 19 71.5t46.5 31.5t102.5 9q88 0 118 -15.5t30 -64.5q0 -33 -10 -118q-5 -49 -19.5 -72t-47.5 -32t-103 -9q-88 0 -118 15.5t-30 64.5z" />
<glyph unicode="/" horiz-adv-x="659" d="M-117 -45q0 26 47 129l533 1212q19 45 35 62t47 24t100 7q44 0 74 -5.5t43 -15.5t17.5 -19.5t4.5 -21.5q0 -28 -47 -131l-532 -1223q-25 -57 -58 -69.5t-135 -12.5q-43 0 -70.5 5t-39.5 15.5t-15.5 20t-3.5 23.5z" />
<glyph unicode="0" d="M20 330q0 63 43 469q13 126 39.5 213t63.5 142.5t96 86t126 42t165 11.5q107 0 175.5 -13.5t121 -51t75.5 -106t23 -175.5q0 -75 -47 -514q-11 -110 -40.5 -190t-70 -129t-101 -78t-124 -39t-149.5 -10q-97 0 -164.5 14t-122.5 50.5t-82 105.5t-27 172zM336 383 q0 -75 24 -102t84 -27q74 0 105.5 42.5t44.5 168.5q41 396 41 440q0 79 -23 101t-86 22q-41 0 -63 -6t-41 -30.5t-28.5 -69t-18.5 -125.5q-39 -365 -39 -414z" />
<glyph unicode="1" d="M84 80q0 111 23 151.5t69 40.5h146l71 678l-114 -26q-43 -9 -60 -9q-12 0 -20 3.5t-14.5 20.5t-6.5 48q0 110 21.5 158.5t72.5 62.5l197 56q74 20 115 20q86 0 116.5 -12.5t30.5 -54.5q0 -20 -20 -207l-78 -738h149q35 0 49.5 -16.5t14.5 -62.5q0 -111 -23 -152t-69 -41 h-607q-35 0 -49 17t-14 63z" />
<glyph unicode="2" d="M31 55q0 18 12 140q11 110 63 193.5t148 162.5l272 225q80 66 80 182q0 42 -24.5 56t-94.5 14q-75 0 -170.5 -15.5t-113.5 -15.5q-35 0 -35 68q0 166 76 192q119 37 366 37q46 0 79.5 -2.5t73.5 -10.5t67 -24.5t50.5 -42.5t35.5 -68t12 -97q0 -196 -74 -310 q-57 -88 -166 -168l-221 -168q-46 -34 -49 -94l-6 -37h391q35 0 49 -16.5t14 -62.5q0 -111 -23 -152t-69 -41h-665q-43 0 -60.5 11t-17.5 44z" />
<glyph unicode="3" d="M18 100q0 181 64 181q12 0 119.5 -12.5t181.5 -12.5q102 0 141 43t39 131q0 63 -51 85t-182 22q-38 0 -53 15.5t-15 51.5q0 95 19.5 132.5t72.5 37.5q125 0 181 35q57 37 57 137q0 44 -23.5 63t-81.5 19q-65 0 -180 -12t-123 -12q-19 0 -28 14t-9 53q0 171 62 186 q161 37 385 37q61 0 107 -6.5t87.5 -24t68.5 -46t42.5 -74.5t15.5 -109q0 -114 -35.5 -198.5t-97.5 -126.5q-53 -38 -127 -45q114 -6 168 -61.5t54 -170.5q0 -123 -33 -210.5t-96 -138t-144.5 -73t-189.5 -22.5q-90 0 -190.5 11t-151.5 26q-31 8 -42.5 22t-11.5 53z" />
<glyph unicode="4" d="M10 348q0 65 14.5 120t57.5 132l338 600q33 57 84 70.5t182 13.5q122 0 162.5 -13t40.5 -61q0 -23 -4 -51l-68 -637h43q36 0 51 -15.5t15 -60.5q0 -110 -23 -145t-72 -35h-40l-19 -182q-6 -54 -38.5 -69t-125.5 -15q-86 0 -117.5 13t-31.5 55q0 8 20 198h-377 q-54 0 -73 14.5t-19 67.5zM319 522h209l56 475h-15z" />
<glyph unicode="5" d="M37 100q0 181 63 181q9 0 84.5 -13.5t161.5 -13.5q111 0 153.5 29.5t51.5 105.5q8 66 8 103q0 42 -21 58.5t-73 16.5q-56 0 -160 -11t-123 -11q-22 0 -33.5 2t-21.5 13.5t-10 33.5q0 1 16 160l47 454q4 47 24 61.5t70 14.5h566q35 0 49 -17t14 -63q0 -111 -22.5 -151.5 t-69.5 -40.5h-375l-20 -205q17 5 73.5 11.5t98.5 6.5q32 0 55 -1t55 -6.5t54.5 -16t47 -29.5t39.5 -46t25 -68t10 -93q0 -68 -16 -209q-9 -80 -32 -141t-59.5 -100.5t-78 -65.5t-97.5 -39t-107 -17.5t-117 -4.5q-151 0 -277 37q-32 8 -42.5 21.5t-10.5 53.5z" />
<glyph unicode="6" d="M43 348q0 60 12 174l27 248q11 101 34 181t52.5 134t70.5 93.5t80.5 61.5t90.5 34.5t91.5 16t92.5 3.5q139 0 276 -37q23 -5 32 -16.5t9 -48.5q0 -53 -6 -91.5t-16 -58t-20.5 -28t-22.5 -8.5q-5 0 -83 11t-157 11q-67 0 -102.5 -7.5t-63.5 -36.5t-40.5 -79t-22.5 -141 l-8 -76q72 123 266 123q70 0 115.5 -10t82 -37.5t53.5 -79.5t17 -133q0 -136 -20 -234t-57 -161.5t-97.5 -101t-132 -52t-170.5 -14.5q-73 0 -124 6.5t-103.5 28t-84 59.5t-51.5 105t-20 161zM336 356q0 -60 26.5 -81t98.5 -21q84 0 117.5 45.5t33.5 165.5q0 56 -26.5 77 t-96.5 21q-89 0 -121 -51.5t-32 -155.5z" />
<glyph unicode="7" d="M135 1092q0 111 22.5 151.5t69.5 40.5h639q53 0 71.5 -14.5t18.5 -67.5q0 -69 -13.5 -127.5t-49.5 -134.5l-416 -860q-25 -51 -63.5 -65.5t-130.5 -14.5q-123 0 -123 61q0 38 47 132l405 819h-413q-35 0 -49.5 17t-14.5 63z" />
<glyph unicode="8" d="M14 276q0 176 55.5 271.5t174.5 132.5q-135 51 -135 221q0 120 28.5 198t89.5 120.5t140 58.5t198 16q65 0 114 -5.5t99 -22t82 -44.5t52 -76.5t20 -115.5q0 -153 -46.5 -234t-146.5 -114q77 -27 118.5 -86t41.5 -166q0 -249 -107.5 -345.5t-373.5 -96.5 q-82 0 -135.5 4.5t-109 21.5t-87.5 47.5t-52 84t-20 130.5zM324 346q0 -54 25.5 -76t90.5 -22q83 0 111 28q45 42 45 189q0 58 -26 78t-89 20q-88 0 -121 -45q-36 -48 -36 -172zM408 874q0 -45 20 -59t74 -14q70 0 94.5 33.5t24.5 130.5q0 51 -20.5 65t-68.5 14 q-73 0 -98.5 -35.5t-25.5 -134.5z" />
<glyph unicode="9" d="M49 94q0 68 10.5 111.5t24.5 58.5t31 15q6 0 82.5 -12.5t154.5 -12.5q75 0 115.5 8t71 38t43.5 81t22 143l6 62q-72 -119 -258 -119q-72 0 -119 10.5t-84 39t-54 82t-17 136.5q0 163 28.5 272t90 172t146.5 89t210 26q60 0 104 -4.5t90.5 -17.5t78 -38.5t57.5 -65 t38.5 -99.5t12.5 -139q0 -59 -6 -133l-31 -279q-11 -101 -34.5 -182t-53 -135.5t-71 -94.5t-82 -62.5t-93.5 -35.5t-96.5 -16.5t-99.5 -3.5q-131 0 -269 35q-30 8 -39.5 19.5t-9.5 51.5zM369 811q0 -54 25.5 -74t94.5 -20q91 0 123.5 56t32.5 169q0 55 -24.5 74.5 t-92.5 19.5q-95 0 -127 -47t-32 -178z" />
<glyph unicode=":" horiz-adv-x="413" d="M6 80q0 14 12 119q5 49 19 71.5t46.5 31.5t102.5 9q88 0 118 -15.5t30 -64.5q0 -33 -10 -118q-5 -49 -19.5 -72t-47.5 -32t-103 -9q-88 0 -118 15.5t-30 64.5zM78 766q0 14 12 119q5 49 19 71.5t46.5 31.5t102.5 9q88 0 118 -15t30 -64q0 -26 -11 -119q-5 -49 -19.5 -72 t-47.5 -32t-103 -9q-88 0 -117.5 15.5t-29.5 64.5z" />
<glyph unicode=";" horiz-adv-x="411" d="M-55 -248q0 24 23.5 120.5t27.5 141.5l14 148q8 71 38.5 91.5t131.5 20.5q89 0 117.5 -15t28.5 -64q0 -21 -7 -86q-4 -56 -25.5 -114t-78.5 -179q-36 -76 -69 -95.5t-117 -19.5q-52 0 -68 12t-16 39zM76 766q0 14 12 119q5 49 19 71.5t46.5 31.5t102.5 9q88 0 117.5 -15 t29.5 -64q0 -34 -10 -119q-5 -49 -19.5 -72t-47.5 -32t-103 -9q-88 0 -117.5 15.5t-29.5 64.5z" />
<glyph unicode="&#x3c;" d="M115 455q0 91 8.5 150t28 92t42 48.5t60.5 26.5l491 148q27 8 54 8q22 0 33.5 -14.5t11.5 -51.5q0 -85 -12 -131t-29.5 -61t-52.5 -23l-385 -92l-3 -12l365 -92q37 -9 50.5 -24.5t13.5 -55.5q0 -201 -72 -201q-29 0 -51 10l-459 146q-54 16 -74 40.5t-20 88.5z" />
<glyph unicode="=" d="M137 322q0 90 19 129q18 43 73 43h516q35 0 48.5 -13.5t13.5 -50.5q0 -78 -19 -127q-19 -43 -73 -43h-518q-33 0 -46.5 13t-13.5 49zM174 676q0 87 19 129q18 43 73 43h518q33 0 46.5 -13.5t13.5 -50.5q0 -88 -19 -127q-18 -43 -73 -43h-519q-33 0 -46 12.5t-13 49.5z " />
<glyph unicode="&#x3e;" d="M100 236q0 85 12 131t30 61t53 23l385 92l2 14l-365 90q-37 9 -50 24.5t-13 55.5q0 115 19.5 158t53.5 43q25 0 49 -8l461 -148q52 -16 72 -41t20 -88q0 -91 -8.5 -150t-28 -92t-42 -48.5t-60.5 -26.5l-491 -148q-27 -8 -54 -8q-22 0 -33.5 14.5t-11.5 51.5z" />
<glyph unicode="?" horiz-adv-x="751" d="M84 1067q0 65 19 121t53 67q110 39 307 39q53 0 95.5 -5t85.5 -20t71.5 -39.5t46.5 -66.5t18 -98q0 -102 -30 -179.5t-113 -162.5l-113 -115q-41 -44 -51 -110l-4 -54q-3 -53 -34.5 -68.5t-112.5 -15.5q-72 0 -102 13.5t-30 52.5q0 3 13 117q6 53 23 86t53 71l114 117 q68 68 68 144q0 41 -22 54t-77 13q-64 0 -143 -13.5t-96 -13.5q-20 0 -29.5 14t-9.5 52zM137 68q0 36 8 102q7 69 37 87.5t131 18.5q88 0 118 -13.5t30 -53.5t-8 -103q-7 -70 -36.5 -88t-131.5 -18q-86 0 -117 14t-31 54z" />
<glyph unicode="@" horiz-adv-x="1972" d="M47 121q0 117 47 555q11 105 27 186t43 157.5t64.5 133t91.5 106t125.5 82t164.5 56.5t209.5 34.5t261.5 10.5q200 0 345 -22t244 -64.5t158 -113t84 -160t25 -212.5q0 -72 -14 -194l-25 -252q-11 -111 -44.5 -193t-77 -129t-104 -75.5t-115 -37.5t-121.5 -9 q-146 0 -216.5 42.5t-101.5 145.5q-84 -188 -309 -188q-153 0 -212.5 59.5t-59.5 224.5q0 93 21 261.5t42 242.5q42 155 123 209.5t229 54.5q181 0 232 -139l4 35q6 56 31.5 70t115.5 14q81 0 106 -10.5t25 -49.5q0 -21 -34 -340q-31 -294 -31 -319q0 -56 19 -76t61 -20 q59 0 82.5 32.5t33.5 137.5l39 362q9 110 9 135q0 75 -16 127.5t-55 93t-107.5 63.5t-168.5 34.5t-243 11.5q-105 0 -186.5 -5.5t-146 -19t-111 -31.5t-81.5 -48t-57.5 -62t-38.5 -81.5t-24.5 -98.5t-16.5 -119q-51 -494 -51 -559q0 -155 72 -227q67 -69 197 -93t370 -24 q37 0 52.5 -15.5t15.5 -60.5q0 -80 -17 -129q-10 -30 -28 -39.5t-48 -9.5q-274 0 -444 26t-276 91q-103 62 -146 166.5t-43 265.5zM860 354q0 -74 20 -95t74 -21q57 0 86 19.5t46 73t30 169.5q12 108 12 159q0 69 -24 92t-90 23q-47 0 -72 -17.5t-43 -74.5 q-10 -37 -24.5 -157t-14.5 -171z" />
<glyph unicode="A" horiz-adv-x="1122" d="M-23 55q0 40 25 111l334 973q33 95 89 120t218 25q69 0 109.5 -3t74 -11t50.5 -24.5t27.5 -41.5t15.5 -65l127 -969q6 -56 6 -80q0 -38 -9 -55t-42.5 -26t-104.5 -9q-72 0 -103.5 7t-45.5 25t-19 60l-27 213h-329l-68 -215q-19 -58 -51.5 -74t-134.5 -16q-85 0 -113.5 12 t-28.5 43zM446 537h236l-51 491h-29z" />
<glyph unicode="B" horiz-adv-x="1046" d="M37 59q0 17 6 64l113 1061q6 54 23.5 72t66.5 24q133 14 299 14q99 0 165.5 -5.5t126 -22t93 -46t52.5 -77t19 -115.5q0 -150 -48 -241t-158 -119q95 -18 139.5 -75t44.5 -169q0 -128 -24.5 -209t-86.5 -133t-161 -73t-254 -21q-210 0 -347 14q-40 4 -54.5 16.5 t-14.5 40.5zM365 227q47 -8 131 -8q70 0 104.5 18.5t50 69t15.5 152.5q0 54 -25.5 75t-95.5 21h-146zM422 766h102q92 0 121 39q29 38 29 156q0 45 -22.5 62t-84.5 17q-73 0 -116 -6z" />
<glyph unicode="C" horiz-adv-x="931" d="M49 350q0 119 28 343t73 337q20 50 46 89.5t53.5 67t62 47.5t66.5 31.5t71.5 18t72 8.5t72.5 2q171 0 307 -39q21 -5 30 -19t9 -52q0 -93 -17.5 -142t-41.5 -49q-6 0 -86 13.5t-154 13.5q-96 0 -143.5 -25.5t-73.5 -107.5q-23 -73 -39 -237.5t-16 -233.5q0 -96 42 -125 t152 -29q79 0 156 13.5t88 13.5q18 0 25.5 -13t7.5 -45q0 -111 -18.5 -153t-49.5 -51q-146 -39 -321 -39q-73 0 -129 8.5t-109 32.5t-87.5 63.5t-55.5 104.5t-21 153z" />
<glyph unicode="D" horiz-adv-x="1079" d="M37 59q0 19 6 68l113 1057q6 54 24 72t66 24q106 14 303 14q72 0 122.5 -3t106.5 -12t94 -26t74 -45.5t57 -69.5t33.5 -99.5t12.5 -133.5q0 -71 -27 -332q-9 -91 -25.5 -166t-36.5 -131t-49.5 -100t-58.5 -74.5t-69.5 -51.5t-75.5 -33t-83.5 -18.5t-87.5 -8.5t-94 -2 q-204 0 -333 14q-41 4 -56.5 16.5t-15.5 40.5zM369 264q43 -6 102 -6q46 0 73.5 3t55 14.5t42.5 31t29.5 56t23 86t16.5 124.5q24 208 24 283q0 107 -42 145.5t-156 38.5q-59 0 -86 -6z" />
<glyph unicode="E" horiz-adv-x="925" d="M39 55q0 12 20 201l101 952q4 47 24.5 61.5t69.5 14.5h623q33 0 47 -16.5t14 -61.5q0 -78 -11 -121.5t-29.5 -58t-49.5 -14.5h-395l-23 -209h258q36 0 50 -14t14 -54q0 -119 -20 -159.5t-70 -40.5h-261l-26 -263h416q35 0 49 -16.5t14 -62.5q0 -111 -23 -152t-69 -41 h-643q-43 0 -61.5 11t-18.5 44z" />
<glyph unicode="F" horiz-adv-x="897" d="M39 66q0 18 6 53l113 1089q4 47 24.5 61.5t69.5 14.5h618q35 0 49.5 -16.5t14.5 -61.5q0 -78 -11 -121.5t-29.5 -58t-49.5 -14.5h-393l-23 -209h256q36 0 50 -14t14 -54q0 -119 -21.5 -159.5t-71.5 -40.5h-256l-47 -451q-6 -53 -40 -68.5t-126 -15.5q-84 0 -115.5 12.5 t-31.5 53.5z" />
<glyph unicode="G" horiz-adv-x="1038" d="M49 350q0 93 31 371q12 111 35.5 199t52.5 147.5t70.5 102.5t80.5 66.5t92 37t95.5 17t99.5 3.5q169 0 324 -37q25 -7 35 -20.5t10 -52.5q0 -93 -18 -142t-42 -49q-11 0 -98 13.5t-164 13.5q-69 0 -108 -9.5t-72.5 -41.5t-51.5 -94.5t-30 -167.5q-22 -225 -22 -291 q0 -52 9.5 -84t31 -47t44 -19t60.5 -4q80 0 117.5 21.5t44.5 83.5l14 120h-90q-26 0 -36.5 13.5t-10.5 50.5q0 107 18.5 148.5t57.5 41.5h260q53 0 70.5 -13t17.5 -44q0 -22 -4 -55l-39 -353q-17 -155 -123.5 -221.5t-337.5 -66.5q-79 0 -136.5 7t-115 29.5t-93 61 t-57.5 105t-22 159.5z" />
<glyph unicode="H" horiz-adv-x="1110" d="M39 66q0 11 4 47l115 1087q6 53 39 68.5t125 15.5q85 0 116 -12t31 -53q0 -12 -4 -48l-41 -397h307l45 426q6 53 40 68.5t126 15.5q85 0 116.5 -12t31.5 -53q0 -3 -5 -48l-112 -1087q-6 -53 -40 -68.5t-126 -15.5q-84 0 -116 12.5t-32 53.5q0 2 5 47l43 405h-310 l-45 -434q-6 -53 -40 -68.5t-126 -15.5q-84 0 -115.5 12.5t-31.5 53.5z" />
<glyph unicode="I" horiz-adv-x="489" d="M39 66q0 11 4 47l115 1087q6 53 39 68.5t125 15.5q85 0 116 -12t31 -53q0 -9 -12 -129l-105 -1006q-6 -53 -40 -68.5t-126 -15.5q-84 0 -115.5 12.5t-31.5 53.5z" />
<glyph unicode="J" horiz-adv-x="765" d="M-2 104q0 73 9 112.5t20 48.5t30 9t73.5 -6t92.5 -6q69 0 94.5 23.5t32.5 97.5l88 817q6 53 40 68.5t126 15.5q85 0 116.5 -12t31.5 -53q0 -12 -4 -48l-84 -778q-23 -223 -109.5 -314t-269.5 -91q-133 0 -238 32q-27 8 -38 25t-11 59z" />
<glyph unicode="K" horiz-adv-x="1026" d="M39 66q0 11 4 47l115 1087q6 53 39 68.5t125 15.5q85 0 116 -12t31 -53q0 -12 -4 -48l-45 -428h37l264 465q28 49 63.5 62.5t137.5 13.5q86 0 113.5 -11.5t27.5 -41.5q0 -24 -37 -88l-311 -496l231 -502q19 -43 19 -69q0 -39 -35 -57.5t-146 -18.5q-79 0 -111 14t-50 60 l-183 473h-41l-47 -463q-6 -53 -40 -68.5t-126 -15.5q-84 0 -115.5 12.5t-31.5 53.5z" />
<glyph unicode="L" horiz-adv-x="874" d="M37 55q0 15 4 47l117 1098q6 53 39 68.5t125 15.5q85 0 116 -12t31 -53q0 -21 -10 -109l-88 -838h377q35 0 49 -16.5t14 -62.5q0 -112 -22.5 -152.5t-69.5 -40.5h-602q-44 0 -62 11t-18 44z" />
<glyph unicode="M" horiz-adv-x="1376" d="M39 66q0 11 4 47l113 1065q6 61 37 83.5t116 22.5q51 0 77 -1t57 -5.5t45 -13.5t30.5 -26.5t26 -42t20.5 -62.5l135 -480h9l237 484q21 42 41 68.5t39.5 43t49.5 24t58 9.5t78 2q82 0 113 -18t31 -64q0 -14 -21 -233l-92 -885q-6 -53 -40 -68.5t-126 -15.5 q-84 0 -115.5 12.5t-31.5 53.5q0 11 4 47l67 657h-8l-166 -350q-21 -37 -31 -52.5t-28.5 -29.5t-40.5 -17.5t-61 -3.5q-75 0 -98.5 18.5t-41.5 84.5l-92 350h-10l-72 -686q-6 -53 -40 -68.5t-126 -15.5q-84 0 -115.5 12.5t-31.5 53.5z" />
<glyph unicode="N" horiz-adv-x="1146" d="M39 66q0 11 4 47l115 1087q6 53 37.5 68.5t113.5 15.5q77 0 112 -14.5t54 -50.5q27 -54 126 -279.5t144 -316.5h21q15 251 49 577q6 53 39 68.5t125 15.5q85 0 116 -12t31 -53q0 -21 -6 -89l-110 -1046q-6 -53 -38.5 -68.5t-119.5 -15.5q-65 0 -96 14t-49 54l-281 632 h-20q-2 -56 -8 -128t-12 -131.5t-17.5 -170t-18.5 -186.5q-4 -53 -37.5 -68.5t-126.5 -15.5q-84 0 -115.5 12.5t-31.5 53.5z" />
<glyph unicode="O" horiz-adv-x="1075" d="M51 375q0 83 24.5 306t53.5 318q23 77 56 130t72 85.5t96.5 50t117.5 23.5t147 6q75 0 128 -5t105 -19t85.5 -41t60 -69.5t38.5 -105t12 -147.5q0 -83 -24.5 -306t-53.5 -318q-23 -77 -56 -130t-72 -85.5t-97 -50t-118 -23.5t-147 -6q-64 0 -111 3.5t-94 13.5t-79.5 27.5 t-61.5 46.5t-46 69.5t-26.5 97t-9.5 129.5zM367 403q0 -49 7 -78.5t25 -45t42.5 -20.5t66.5 -5q77 0 113.5 22t54.5 95q19 81 37 259.5t18 248.5q0 49 -7 78.5t-25 45t-42.5 20.5t-66.5 5q-77 0 -113.5 -22t-54.5 -95q-19 -81 -37 -259.5t-18 -248.5z" />
<glyph unicode="P" horiz-adv-x="1032" d="M39 66q0 11 4 47l111 1069q6 52 25 70t67 24q159 18 399 18q95 0 158.5 -14t113.5 -50.5t73.5 -104.5t23.5 -171q0 -131 -26 -228t-72 -159.5t-119 -100t-157.5 -52.5t-195.5 -15h-59l-33 -315q-6 -53 -40 -68.5t-126 -15.5q-84 0 -115.5 12.5t-31.5 53.5zM410 649h90 q47 0 82 15.5t55 40t32.5 62t16.5 74.5t4 83q0 66 -29.5 91t-95.5 25q-71 0 -114 -6z" />
<glyph unicode="Q" horiz-adv-x="1075" d="M51 375q0 83 24.5 306t53.5 318q23 77 56 130t72 85.5t96.5 50t117.5 23.5t147 6q75 0 128 -5t105 -19t85.5 -41t60 -69.5t38.5 -105t12 -147.5q0 -83 -24.5 -306t-53.5 -318q-55 -184 -176 -246l84 -131q38 -58 38 -88q0 -34 -30 -50t-101 -16q-86 0 -119 17t-63 73 l-80 146h-43q-64 0 -111 3.5t-94 13.5t-79.5 27.5t-61.5 46.5t-46 69.5t-26.5 97t-9.5 129.5zM367 403q0 -49 7 -78.5t25 -45t42.5 -20.5t66.5 -5q77 0 113.5 22t54.5 95q19 81 37 259.5t18 248.5q0 49 -7 78.5t-25 45t-42.5 20.5t-66.5 5q-77 0 -113.5 -22t-54.5 -95 q-19 -81 -37 -259.5t-18 -248.5z" />
<glyph unicode="R" horiz-adv-x="1036" d="M39 66q0 11 4 47l111 1069q6 52 25 70t67 24q159 18 387 18q77 0 133 -7.5t105.5 -27.5t80 -54.5t47.5 -89t17 -130.5q0 -184 -57.5 -292.5t-167.5 -160.5l147 -405q14 -41 14 -64q0 -35 -25.5 -49t-111.5 -14q-51 0 -77.5 1.5t-49.5 5.5t-33.5 14.5t-18 24.5t-13.5 40 l-105 391q-27 -2 -82 -2h-43l-41 -391q-6 -53 -40 -68.5t-126 -15.5q-84 0 -115.5 12.5t-31.5 53.5zM416 690h61q123 0 169 44.5t46 178.5q0 71 -31 99t-96 28q-71 0 -114 -6z" />
<glyph unicode="S" horiz-adv-x="921" d="M0 113q0 72 20.5 124t51.5 52q12 0 92 -13.5t155 -13.5q137 0 179 31q23 17 36 51.5t13 73.5q0 34 -17 55.5t-65 42.5l-197 84q-80 33 -123 96t-43 172q0 81 22 160t58 129q98 137 344 137q187 0 326 -39q21 -5 30 -19t9 -52q0 -70 -11 -115t-25 -60.5t-30 -15.5 q-4 0 -85 13.5t-165 13.5q-63 0 -100.5 -8.5t-54.5 -34.5q-17 -27 -17 -68q0 -31 16.5 -48.5t55.5 -33.5l193 -84q63 -28 99.5 -57.5t59.5 -80t23 -124.5q0 -302 -193 -420q-117 -73 -321 -73q-157 0 -283 37q-30 8 -41.5 25.5t-11.5 62.5z" />
<glyph unicode="T" horiz-adv-x="937" d="M86 1092q0 111 23 151.5t69 40.5h733q35 0 49.5 -16.5t14.5 -61.5q0 -113 -22.5 -153.5t-67.5 -40.5h-211l-99 -928q-6 -53 -39.5 -68.5t-125.5 -15.5q-84 0 -116 12.5t-32 53.5q0 11 4 47l96 899h-210q-35 0 -50.5 17t-15.5 63z" />
<glyph unicode="U" horiz-adv-x="1083" d="M63 299q0 10 9 102l86 799q6 53 39 68.5t125 15.5q85 0 116 -12t31 -53q0 -12 -4 -48l-82 -772q-4 -39 -4 -65q0 -51 26.5 -68.5t104.5 -17.5q90 0 119 24.5t37 102.5l88 825q6 53 40 68.5t126 15.5q85 0 116 -12t31 -53q0 -12 -4 -48l-84 -780q-17 -153 -70 -239.5 t-154 -125t-272 -38.5q-227 0 -323.5 70t-96.5 241z" />
<glyph unicode="V" horiz-adv-x="1093" d="M86 1196q0 35 10 52t44.5 26.5t103.5 9.5q105 0 139.5 -16.5t38.5 -73.5l80 -940h26l279 940q17 57 54 73.5t140 16.5q86 0 115 -12t29 -43t-27 -113l-338 -989q-19 -58 -47.5 -83.5t-80.5 -34.5t-163 -9q-160 0 -207 22t-57 105l-112 858q-27 190 -27 211z" />
<glyph unicode="W" horiz-adv-x="1638" d="M100 1194q0 34 11.5 52t47 28t103.5 10q102 0 132 -17t30 -75l8 -905h23l233 882q14 59 56.5 77t146.5 18q100 0 140.5 -18.5t43.5 -76.5l55 -882h23l193 905q12 58 48 75t140 17q85 0 113 -12.5t28 -44.5q0 -27 -22 -113l-244 -987q-21 -81 -77.5 -104t-194.5 -23 q-131 0 -184.5 27t-59.5 108l-45 613h-21l-163 -613q-22 -81 -84 -108t-191 -27q-138 0 -190.5 23.5t-55.5 103.5l-41 979q-2 41 -2 88z" />
<glyph unicode="X" horiz-adv-x="989" d="M-33 55q0 45 56 127l323 475l-199 437q-30 66 -30 108q0 45 33 63.5t131 18.5q68 0 102.5 -9t48.5 -25.5t29 -55.5l86 -225h8l117 221q22 40 39 57.5t53 27t104 9.5q88 0 120 -14t32 -51q0 -38 -57 -123l-285 -414l217 -498q35 -77 35 -110q0 -17 -5.5 -29t-21 -23 t-48.5 -16.5t-83 -5.5q-96 0 -130.5 18t-53.5 72l-99 275h-8l-170 -275q-34 -54 -71 -72t-131 -18q-85 0 -113.5 12t-28.5 43z" />
<glyph unicode="Y" horiz-adv-x="991" d="M80 1200q0 33 11 49.5t45.5 25.5t103.5 9q101 0 133.5 -16.5t44.5 -73.5l96 -426h12l179 426q25 58 60.5 74t143.5 16q86 0 114 -12t28 -43t-43 -111l-365 -669l-39 -365q-6 -53 -39.5 -68.5t-124.5 -15.5q-84 0 -116.5 12.5t-32.5 53.5q0 11 4 47l37 336l-199 575 q-53 151 -53 176z" />
<glyph unicode="Z" horiz-adv-x="878" d="M-12 74q0 61 16.5 111.5t81.5 150.5l436 676h-332q-35 0 -50 17t-15 63q0 111 23 151.5t69 40.5h621q37 0 51 -15t14 -55q0 -122 -63 -219l-471 -723h379q35 0 49 -16.5t14 -62.5q0 -111 -23 -152t-69 -41h-668q-38 0 -50.5 15.5t-12.5 58.5z" />
<glyph unicode="[" horiz-adv-x="589" d="M39 -27q0 30 12 136l123 1179q4 48 28.5 68t73.5 20h316q32 0 44.5 -14.5t12.5 -54.5q0 -102 -19.5 -139.5t-62.5 -37.5h-104l-101 -980h99q32 0 44.5 -15t12.5 -57q0 -101 -20 -137.5t-62 -36.5h-313q-44 0 -64 16t-20 53z" />
<glyph unicode="\" horiz-adv-x="561" d="M37 1325q0 64 135 64q74 0 100.5 -15.5t36.5 -73.5l209 -1198q21 -117 21 -147q0 -64 -136 -64q-74 0 -101 15.5t-36 73.5l-209 1198q-20 113 -20 147z" />
<glyph unicode="]" horiz-adv-x="589" d="M-35 -27q0 101 20.5 139t61.5 38h105l102 980h-100q-30 0 -44 16t-14 56q0 101 20 137.5t62 36.5h314q44 0 63.5 -15.5t19.5 -53.5q0 -30 -12 -136l-123 -1177q-4 -48 -29 -69t-73 -21h-315q-32 0 -45 14.5t-13 54.5z" />
<glyph unicode="^" horiz-adv-x="985" d="M135 764q0 11 23 57l182 359q18 36 30 53t37.5 32.5t63.5 20t104 4.5q53 0 87 -4t55.5 -10t35 -21.5t20 -30t15.5 -44.5l99 -340q20 -68 20 -82q0 -15 -7 -23.5t-35 -15t-81 -6.5q-36 0 -58 0.5t-39.5 5.5t-25.5 8.5t-15.5 16t-10 21.5t-8.5 32l-64 237h-12l-121 -248 q-16 -32 -31.5 -46t-49 -20.5t-99.5 -6.5q-68 0 -91.5 13t-23.5 38z" />
<glyph unicode="_" horiz-adv-x="1044" d="M-53 -242q0 37 6.5 86t17.5 70q21 47 78 47h830q38 0 52.5 -14t14.5 -53q0 -35 -7 -84.5t-17 -71.5q-21 -47 -78 -47h-832q-36 0 -50.5 14t-14.5 53z" />
<glyph unicode="`" horiz-adv-x="534" d="M123 1401q0 45 37 58.5t135 13.5q94 0 124.5 -20t45.5 -87l29 -121q18 -79 18 -94q0 -28 -26.5 -38.5t-108.5 -10.5q-35 0 -55 0.5t-38 5t-25.5 7.5t-17.5 15.5t-14.5 21t-15.5 32.5l-53 114q-35 76 -35 103z" />
<glyph unicode="a" horiz-adv-x="1052" d="M57 229q0 146 37 398q18 120 49 200.5t77.5 125t101.5 62t131 17.5q194 0 249 -143l5 29q8 57 38 75.5t123 18.5q80 0 105.5 -12.5t25.5 -51.5q0 -24 -31.5 -321t-31.5 -355q0 -24 10 -105t10 -97q0 -37 -33 -53.5t-120 -16.5q-57 0 -83.5 8.5t-35.5 24.5t-16 55l-17 98 q-58 -110 -146 -158t-210 -48q-112 0 -175 56.5t-63 192.5zM377 326q0 -52 21 -70t65 -18q56 0 96.5 40t59 94t26.5 122l17 139q6 48 6 72q0 37 -25.5 53t-83.5 16q-72 0 -105 -35.5t-48 -134.5q-29 -216 -29 -278z" />
<glyph unicode="b" horiz-adv-x="1042" d="M68 201q0 59 12 172l94 891q6 54 38.5 69t125.5 15q87 0 117 -12t30 -54q0 -4 -1 -18t-1 -19l-34 -334q105 121 301 121q116 0 178.5 -57t62.5 -197q0 -159 -35 -377q-18 -124 -56.5 -205t-107.5 -129t-161.5 -67.5t-229.5 -19.5q-174 0 -253.5 52.5t-79.5 168.5z M377 279q0 -28 21 -39t75 -11q84 0 118.5 38t53.5 151q27 184 27 266q0 55 -21 72.5t-69 17.5q-45 0 -79.5 -22t-55 -61t-32 -82.5t-16.5 -94.5q-22 -210 -22 -235z" />
<glyph unicode="c" horiz-adv-x="841" d="M57 303q0 145 21 286.5t53 227.5q25 65 65 108.5t94 66t110 31.5t128 9q141 0 236 -31q29 -8 41 -24.5t12 -58.5q0 -47 -6 -80t-13.5 -49.5t-19 -25t-18 -10t-15.5 -1.5q-12 0 -87.5 9t-116.5 9q-64 0 -95 -21t-45 -71q-18 -68 -29.5 -162t-11.5 -166q0 -61 23 -84.5 t90 -23.5q54 0 148 18.5t98 18.5q49 0 49 -70q0 -85 -17 -125.5t-53 -56.5q-92 -45 -299 -45q-88 0 -148.5 14.5t-105.5 50t-66.5 98.5t-21.5 158z" />
<glyph unicode="d" horiz-adv-x="1052" d="M57 229q0 146 37 398q18 120 49 200.5t77.5 125t101.5 62t131 17.5q185 0 243 -131l37 363q6 55 36 69.5t122 14.5q84 0 112.5 -11.5t28.5 -52.5q0 -14 -6 -74l-72 -704q-18 -173 -18 -234q0 -24 10 -105t10 -97q0 -37 -33 -53.5t-120 -16.5q-57 0 -83.5 8.5t-35.5 24.5 t-16 55l-17 98q-58 -110 -146 -158t-210 -48q-112 0 -175 56.5t-63 192.5zM377 326q0 -52 21 -70t65 -18q56 0 96.5 40t59 94t26.5 122q23 199 23 211q0 37 -25.5 53t-83.5 16q-72 0 -105 -35.5t-48 -134.5q-29 -216 -29 -278z" />
<glyph unicode="e" horiz-adv-x="940" d="M57 303q0 145 21 286.5t53 227.5q48 125 150 170t278 45q99 0 166.5 -17t104.5 -50.5t52 -76t15 -102.5q0 -276 -141 -352q-119 -64 -396 -67v-27q0 -58 25 -80t88 -22q80 0 185.5 23.5t111.5 23.5q51 0 51 -84q0 -56 -10 -90.5t-23 -47t-36 -24.5q-46 -24 -133 -40.5 t-185 -16.5q-101 0 -168.5 14t-116 50t-70.5 99t-22 158zM375 549q119 5 178 29q57 27 57 137q0 28 -16 44.5t-64 16.5q-58 0 -87 -22.5t-44 -81.5q-10 -35 -24 -123z" />
<glyph unicode="f" horiz-adv-x="657" d="M-168 -305q0 67 16 119.5t54 52.5q12 0 48.5 -4t61.5 -4q43 0 58 19t22 89l82 799h-70q-26 0 -36.5 12t-10.5 39q0 103 21 154q12 33 53 33h68q20 200 59 270q66 112 246 112q123 0 194 -22q32 -11 44 -29t12 -59q0 -85 -18.5 -117.5t-53.5 -32.5q-14 0 -52 5.5t-61 5.5 q-32 0 -45.5 -15.5t-19.5 -64.5l-6 -53h149q49 0 49 -52q0 -29 -6 -77.5t-16 -75.5q-14 -33 -53 -33h-136l-88 -854q-18 -172 -103.5 -246t-230.5 -74q-110 0 -184 23q-24 8 -35.5 25.5t-11.5 54.5z" />
<glyph unicode="g" horiz-adv-x="1040" d="M8 -291q0 68 15.5 120t54.5 52q4 0 94 -11t168 -11q54 0 91 4t65.5 16.5t45 29t29 48t19 66t12.5 90.5q-105 -133 -307 -133q-112 0 -175 56.5t-63 192.5q0 146 37 398q18 120 49 200.5t77.5 125t101.5 62t131 17.5q194 0 249 -143l5 29q8 57 38 75.5t123 18.5 q80 0 105.5 -12.5t25.5 -51.5q0 -1 -14 -155l-72 -682q-10 -96 -31 -172t-49.5 -130t-69.5 -93t-84 -63t-100 -37.5t-110.5 -18.5t-122.5 -5q-167 0 -293 35q-23 8 -34 26t-11 56zM377 326q0 -52 21 -70t65 -18q56 0 96.5 40t59 94t26.5 122q23 199 23 211q0 37 -25.5 53 t-83.5 16q-72 0 -105 -35.5t-48 -134.5q-29 -216 -29 -278z" />
<glyph unicode="h" horiz-adv-x="1056" d="M47 63q0 26 12 134l113 1067q6 55 39.5 69.5t130.5 14.5q83 0 112 -12t29 -50q0 -13 -12 -133l-27 -248q97 127 301 127q246 0 246 -190q0 -42 -29.5 -302t-29.5 -307q0 -36 6 -86.5t6 -58.5q0 -14 -1 -22.5t-8.5 -22.5t-22 -22t-44 -14.5t-71.5 -6.5q-75 0 -107 11.5 t-47 45.5q-10 23 -16 67t-6 73q0 55 23.5 268.5t23.5 236.5q0 33 -15.5 48.5t-56.5 15.5q-167 0 -186 -184l-52 -498q-6 -54 -40 -69t-130 -15q-82 0 -111.5 12t-29.5 51z" />
<glyph unicode="i" horiz-adv-x="499" d="M63 197q0 64 23 252l51 479q6 55 39.5 69.5t130.5 14.5q83 0 112.5 -12t29.5 -52q0 -25 -37 -355.5t-37 -359.5q0 -36 6 -86.5t6 -58.5q0 -17 -3 -28.5t-15.5 -27t-45 -24t-83.5 -8.5q-75 0 -107 11.5t-47 45.5q-10 23 -16.5 67.5t-6.5 72.5zM160 1186q0 94 35 129 q20 20 55 26.5t108 6.5q82 0 112 -19t30 -69q0 -92 -33 -127q-19 -21 -55.5 -28t-110.5 -7q-81 0 -111 19.5t-30 68.5z" />
<glyph unicode="j" horiz-adv-x="489" d="M-223 -305q0 68 15.5 120t53.5 52q12 0 49 -4t68 -4q35 0 50.5 16t21.5 76q12 136 102 977q6 55 39.5 69.5t130.5 14.5q87 0 114.5 -10.5t27.5 -53.5q0 -35 -16 -193.5t-50.5 -470.5t-40.5 -372q-18 -172 -103.5 -246t-228.5 -74q-112 0 -186 23q-47 16 -47 80zM160 1186 q0 94 35 129q20 20 55 26.5t108 6.5q82 0 112 -19t30 -69q0 -92 -33 -127q-19 -21 -55.5 -28t-110.5 -7q-81 0 -111 19.5t-30 68.5z" />
<glyph unicode="k" horiz-adv-x="972" d="M47 63q0 26 12 134l113 1067q6 55 39.5 69.5t130.5 14.5q83 0 112 -12t29 -50q0 -25 -12 -133l-57 -530h41q49 60 105 152t87 157q17 35 29.5 48.5t48 22.5t104.5 9q92 0 120 -18t28 -52q0 -67 -88.5 -191.5t-186.5 -222.5q54 -131 199 -368q39 -62 39 -84 q0 -76 -168 -76q-91 0 -126 17.5t-73 82.5q-67 111 -139 334h-39l-37 -350q-6 -54 -40 -69t-130 -15q-82 0 -111.5 12t-29.5 51z" />
<glyph unicode="l" horiz-adv-x="499" d="M63 197q0 1 23 252l86 815q6 55 39.5 69.5t130.5 14.5q83 0 112 -12t29 -50q0 -25 -12 -133l-70 -647q-26 -239 -26 -273q0 -36 6 -86.5t6 -58.5q0 -17 -3 -28.5t-15.5 -27t-45 -24t-83.5 -8.5q-75 0 -107 11.5t-47 45.5q-10 23 -16.5 67.5t-6.5 72.5z" />
<glyph unicode="m" horiz-adv-x="1556" d="M53 59q0 47 33 344t33 349q0 16 -6.5 87.5t-6.5 82.5q0 47 32.5 67.5t119.5 20.5q89 0 116.5 -14.5t31.5 -63.5l8 -82q90 182 301 182q112 0 167 -38.5t70 -127.5q99 166 295 166q246 0 246 -190q0 -42 -29.5 -302t-29.5 -307q0 -36 6 -86.5t6 -58.5q0 -13 -1.5 -22 t-9 -23t-22.5 -22t-44.5 -14.5t-70.5 -6.5q-75 0 -106.5 11.5t-46.5 45.5q-10 23 -16.5 67.5t-6.5 72.5q0 55 23.5 268.5t23.5 236.5q0 33 -15 48.5t-56 15.5q-74 0 -110.5 -50.5t-47.5 -150.5l-51 -483q-6 -55 -39.5 -70.5t-130.5 -15.5q-82 0 -111.5 12t-29.5 51 q0 48 32.5 330t32.5 313q0 34 -14 49t-56 15q-74 0 -110.5 -51.5t-46.5 -149.5l-51 -483q-6 -55 -39.5 -70.5t-130.5 -15.5q-82 0 -112 12t-30 51z" />
<glyph unicode="n" horiz-adv-x="1058" d="M53 63q0 47 33 344t33 349q0 16 -6.5 88t-6.5 82q0 46 33 66t119 20q90 0 117 -13.5t31 -62.5l8 -86q92 182 334 182q126 0 185.5 -47.5t59.5 -142.5q0 -42 -29.5 -302t-29.5 -307q0 -36 6 -86.5t6 -58.5q0 -14 -1 -22.5t-8.5 -22.5t-22 -22t-44 -14.5t-71.5 -6.5 q-75 0 -107 11.5t-47 45.5q-10 23 -16 67t-6 73q0 55 23.5 268.5t23.5 236.5q0 33 -15 48.5t-57 15.5q-87 0 -129.5 -51.5t-52.5 -145.5l-51 -485q-6 -54 -40 -69t-130 -15q-82 0 -112 12t-30 51z" />
<glyph unicode="o" horiz-adv-x="991" d="M57 303q0 120 20 257t46 216q32 100 91 157.5t136 78t193 20.5q106 0 176 -14.5t120 -50.5t72.5 -98.5t22.5 -157.5q0 -120 -20 -257t-46 -216q-47 -147 -145.5 -201.5t-273.5 -54.5q-106 0 -176 14.5t-120.5 50.5t-73 98.5t-22.5 157.5zM365 356q0 -68 20 -90t80 -22 q69 0 94 28.5t39 106.5q29 166 29 278q0 68 -20.5 90.5t-80.5 22.5q-69 0 -94 -28.5t-39 -106.5q-28 -160 -28 -279z" />
<glyph unicode="p" horiz-adv-x="1044" d="M16 -299q0 4 9 78l79 774q17 183 17 203q0 25 -5 90t-5 80q0 47 31 66.5t118 19.5q91 0 121.5 -26t34.5 -109v-23q52 98 134.5 138t197.5 40q137 0 193 -63t56 -211q0 -139 -36 -357q-17 -102 -46 -177.5t-64 -121.5t-82 -74t-93 -38t-103 -10q-135 0 -206 86l-37 -353 q-6 -60 -39 -77t-127 -17q-77 0 -112.5 17t-35.5 65zM381 291q0 -34 23 -48t77 -14q82 0 116.5 38.5t51.5 150.5q27 184 27 266q0 55 -20.5 72.5t-67.5 17.5q-45 0 -79 -22t-54 -61.5t-31 -81t-18 -95.5q-25 -219 -25 -223z" />
<glyph unicode="q" horiz-adv-x="1040" d="M57 229q0 146 37 398q18 120 49 200.5t77.5 125t101.5 62t131 17.5q194 0 249 -143l5 29q8 57 38 75.5t123 18.5q80 0 105.5 -12.5t25.5 -51.5q0 -7 -12 -133l-113 -1102q-6 -60 -38.5 -77t-124.5 -17q-77 0 -113.5 17t-36.5 65q0 12 8 78l35 334q-108 -133 -309 -133 q-112 0 -175 56.5t-63 192.5zM377 326q0 -52 21 -70t65 -18q56 0 96.5 40t59 94t26.5 122q21 191 21 211q0 37 -24.5 53t-82.5 16q-72 0 -105 -35.5t-48 -134.5q-29 -216 -29 -278z" />
<glyph unicode="r" horiz-adv-x="774" d="M53 63q0 47 33 342t33 347q0 16 -6.5 87.5t-6.5 82.5q0 47 32.5 67.5t119.5 20.5q89 0 116.5 -14.5t31.5 -63.5l6 -76q96 168 268 168q74 0 98 -27q15 -18 15 -61q0 -44 -10 -93t-21 -69q-16 -31 -47 -31q-4 0 -39 3.5t-64 3.5q-97 0 -145.5 -70t-65.5 -242l-36 -354 q-6 -54 -40 -69t-130 -15q-82 0 -112 12t-30 51z" />
<glyph unicode="s" horiz-adv-x="847" d="M20 96q0 77 18 124.5t52 47.5q6 0 94 -12t158 -12q71 0 98 19.5t27 55.5q0 21 -10.5 33.5t-40.5 24.5l-158 65q-93 38 -134.5 89t-41.5 135q0 82 30.5 166t82.5 126q91 74 276 74q178 0 283 -31q25 -7 38 -24.5t13 -58.5q0 -47 -6 -80t-13.5 -49.5t-19 -25t-18 -10 t-15.5 -1.5q-17 0 -116.5 12t-145.5 12q-32 0 -47 -10q-21 -18 -21 -53q0 -17 10 -28t38 -21l149 -62q103 -42 143.5 -99t40.5 -136q0 -101 -30.5 -184.5t-89.5 -127.5q-103 -75 -314 -75q-70 0 -151 9.5t-123 22.5q-31 11 -43.5 29.5t-12.5 54.5z" />
<glyph unicode="t" horiz-adv-x="710" d="M63 817q0 30 6 79t17 75q12 33 51 33h74l14 137q6 56 34.5 70t123.5 14q83 0 113 -12t30 -52q0 -17 -14 -157h143q26 0 36.5 -12.5t10.5 -39.5q0 -99 -22 -153q-11 -33 -51 -33h-131l-41 -399q-8 -73 -8 -86q0 -16 10.5 -22.5t40.5 -6.5q16 0 47 6t41 6q53 0 53 -86 q0 -56 -10 -89.5t-23.5 -46t-38.5 -24.5q-36 -17 -99 -27.5t-120 -10.5q-113 0 -168 43t-55 145q0 27 6 98l51 500h-71q-50 0 -50 51z" />
<glyph unicode="u" horiz-adv-x="1046" d="M63 162q0 43 31 291q33 264 33 311q0 27 -6 88t-6 74q0 47 31.5 66.5t119.5 19.5q83 0 109.5 -15t38.5 -67q18 -81 18 -154q0 -37 -24.5 -241.5t-24.5 -233.5q0 -37 19 -50t61 -13q84 0 122.5 64t51.5 190l47 436q6 55 39.5 69.5t130.5 14.5q83 0 112 -12t29 -52 q0 -24 -31.5 -322.5t-31.5 -353.5q0 -24 9 -105t9 -97q0 -37 -32 -53.5t-119 -16.5q-58 0 -85 8.5t-36 24.5t-16 55l-17 92q-99 -200 -344 -200q-50 0 -90.5 9t-75 29t-53.5 56.5t-19 87.5z" />
<glyph unicode="v" horiz-adv-x="952" d="M61 915q0 28 8 46.5t19 28.5t36.5 15t47.5 6t64 1q97 0 125 -15t34 -71q5 -45 19 -308t22 -364h21q30 99 98.5 373.5t75.5 298.5q15 55 47.5 70.5t130.5 15.5q90 0 124 -13.5t34 -56.5q0 -39 -62 -215q-177 -508 -237 -625q-19 -38 -43.5 -58t-81 -32t-154.5 -12 q-132 0 -177 25.5t-54 105.5l-84 666q-13 97 -13 118z" />
<glyph unicode="w" horiz-adv-x="1511" d="M82 903q0 59 33.5 84t130.5 25q103 0 131.5 -18t28.5 -85q0 -529 6 -655h26l174 655q13 49 53 65.5t136 16.5q93 0 128.5 -18t39.5 -70q2 -33 13 -324t13 -325h25q23 74 88 368t68 306q12 54 47 69t139 15q77 0 110 -13t33 -57q0 -41 -75 -297q-116 -395 -177 -534 q-16 -34 -31 -52.5t-44 -33.5t-75.5 -20t-121.5 -5q-62 0 -98 6t-57 24.5t-28.5 41.5t-11.5 67l-34 381h-19q-69 -243 -127 -407q-16 -43 -39.5 -65.5t-77.5 -35t-151 -12.5q-123 0 -168 22t-49 89l-35 602q-4 78 -4 190z" />
<glyph unicode="x" horiz-adv-x="931" d="M-27 70q0 37 45 104l236 346l-125 301q-29 77 -29 113q0 27 9 42.5t32 23.5t49 10t74 2q92 0 125 -17t47 -80l62 -194h8l110 211q28 52 57 66t111 14q97 0 129.5 -11.5t32.5 -58.5q0 -45 -39 -98l-233 -334l160 -328q32 -61 32 -106q0 -24 -13 -39.5t-38 -23t-51 -10.5 t-62 -3q-91 0 -123 15.5t-55 76.5l-84 227h-10l-123 -239q-23 -51 -55.5 -65.5t-118.5 -14.5q-37 0 -60.5 2t-49 8t-38 21t-12.5 39z" />
<glyph unicode="y" horiz-adv-x="970" d="M-29 -297q0 61 17.5 114.5t56.5 53.5q9 0 71.5 -6t94.5 -6q89 0 124 26t56 97l4 18q-131 0 -176.5 26.5t-54.5 108.5l-78 651q-12 102 -12 129q0 62 39 80q33 17 135 17q96 0 125 -14.5t33 -65.5q1 -17 7.5 -148t15 -286.5t15.5 -243.5h23q45 166 111.5 418t68.5 260 q13 51 47 65.5t135 14.5q86 0 116 -14t30 -52q0 -27 -49 -209q-128 -468 -201.5 -680.5t-134.5 -302.5q-57 -84 -149 -123t-232 -39q-42 0 -99.5 8t-91.5 19q-47 16 -47 84z" />
<glyph unicode="z" horiz-adv-x="821" d="M2 63q0 89 23 148q11 28 55 82q283 361 346 459h-248q-67 0 -67 55q0 94 22 156q13 41 66 41h551q30 0 40.5 -12.5t10.5 -41.5q0 -112 -35 -172q-108 -182 -373 -516h279q67 0 67 -55q0 -94 -22 -156q-13 -41 -66 -41h-598q-29 0 -40 12.5t-11 40.5z" />
<glyph unicode="{" horiz-adv-x="684" d="M41 584q0 64 18 116q9 31 26 43.5t50 12.5q59 0 70 82q15 184 24 268q13 138 78 210.5t195 72.5q106 0 203 -23q22 -6 31 -22.5t9 -51.5q0 -21 -2.5 -45t-8.5 -53.5t-20 -48.5t-34 -19q-17 0 -56.5 1t-54.5 1q-23 0 -31.5 -16.5t-11.5 -52.5q-12 -83 -22 -225 q-14 -144 -127 -187l-2 -8q45 -18 65.5 -50t20.5 -93q0 -43 -14.5 -154t-14.5 -154q0 -20 6 -29t23 -9t56 1t54 1q41 0 41 -68q0 -154 -63 -172q-103 -23 -209 -23q-217 0 -217 226q0 49 18.5 177t18.5 177q0 61 -54 61q-34 0 -49.5 12.5t-15.5 41.5z" />
<glyph unicode="|" horiz-adv-x="419" d="M-8 -330q0 12 6 66l166 1585q4 43 31.5 55.5t99.5 12.5q66 0 90.5 -10t24.5 -42q0 -2 -7 -65l-165 -1585q-4 -42 -31 -55t-98 -13q-67 0 -92 9.5t-25 41.5z" />
<glyph unicode="}" horiz-adv-x="684" d="M-43 -14q0 21 2.5 45t9 53.5t20.5 48.5t34 19q15 0 55 -1t55 -1q23 0 31.5 16.5t11.5 52.5l23 225q14 145 127 187l2 10q-46 16 -67 48t-21 95q0 42 15 153t15 153q0 38 -30 38q-17 0 -55.5 -1t-53.5 -1q-22 0 -32.5 15.5t-10.5 54.5q0 154 66 170q100 23 206 23 q218 0 218 -224q0 -50 -18.5 -178.5t-18.5 -177.5q0 -61 55 -61q33 0 48 -12.5t15 -41.5q0 -53 -18 -114q-11 -33 -26 -45.5t-48 -12.5q-62 0 -69 -82q-12 -109 -25 -268q-26 -283 -274 -283q-106 0 -203 23q-22 6 -30.5 23t-8.5 51z" />
<glyph unicode="~" d="M139 506q0 38 12 84.5t37 75.5q27 28 75.5 45.5t105.5 17.5q56 0 139.5 -23.5t132.5 -23.5q48 0 97 18.5t57 18.5q21 0 31 -13.5t10 -52.5q0 -35 -13.5 -81.5t-38.5 -77.5q-59 -62 -180 -62q-56 0 -139.5 23.5t-132.5 23.5q-46 0 -95 -19.5t-57 -19.5q-20 0 -30.5 14.5 t-10.5 51.5z" />
<glyph unicode="&#xa1;" horiz-adv-x="454" d="M25 68q0 18 14 122l86 650q7 54 33.5 69t103.5 15q69 0 96 -14t27 -62q0 -27 -8 -150l-41 -614q-3 -53 -37 -68.5t-127 -15.5q-87 0 -117 12.5t-30 55.5zM127 1075q0 44 6 103q7 70 37 88t133 18q87 0 117.5 -13.5t30.5 -53.5q0 -32 -9 -103q-9 -69 -38.5 -87.5 t-129.5 -18.5q-88 0 -117.5 13.5t-29.5 53.5z" />
<glyph unicode="&#xa2;" d="M102 535q0 110 22 216t60 173q79 134 271 157l14 138q4 42 30 53.5t99 11.5q67 0 91 -9.5t24 -41.5q0 -37 -6 -86l-9 -66q85 -8 150 -28q26 -10 36.5 -25t10.5 -53q0 -84 -18.5 -125t-47.5 -41q-6 0 -90.5 12.5t-134.5 12.5q-66 0 -103 -13t-55 -47q-32 -55 -32 -192 q0 -71 33 -96t124 -25q75 0 151 13l77 13q21 0 30 -17t9 -58q0 -62 -10 -98.5t-23.5 -48.5t-36.5 -19q-76 -26 -162 -35l-14 -145q-4 -42 -31 -54t-100 -12q-67 0 -91 9.5t-24 41.5q0 20 8 86l8 76q-129 20 -194.5 93t-65.5 229z" />
<glyph unicode="&#xa3;" d="M68 57q0 51 19 107t42.5 99t46 104.5t27.5 119.5l6 60h-80q-25 0 -35 9t-10 36q0 50 20 100q8 22 19 28.5t31 6.5h73l21 195q8 73 23.5 129.5t34.5 95.5t46 66.5t53 43t62 24t66 11t71 2.5q126 0 297 -37q22 -5 30.5 -18t8.5 -49q0 -66 -16.5 -126t-51.5 -60 q-22 0 -80.5 8t-97.5 8q-80 0 -108 -21.5t-37 -103.5l-17 -168h125q26 0 35.5 -9t9.5 -36q0 -74 -14 -102q-15 -33 -55 -33h-119q-9 -79 -34 -160t-50 -115h391q34 0 48 -16.5t14 -62.5q0 -111 -23 -152t-69 -41h-644q-42 0 -60.5 12.5t-18.5 44.5z" />
<glyph unicode="&#xa4;" d="M121 143q0 31 39 105l28 55q-49 55 -49 168q0 65 17.5 149.5t44.5 127.5q22 35 55 61l-12 43q-19 58 -19 92q0 23 21.5 33t77.5 10q66 0 87.5 -11t32.5 -48l19 -66q16 2 53 2q13 0 37 -1t35 -1l33 66q19 37 43 47t90 12q50 0 71 -7.5t21 -25.5q0 -31 -39 -102l-31 -57 q51 -54 51 -168q0 -64 -17 -149.5t-44 -127.5q-22 -35 -55 -61l12 -41q20 -61 20 -92q0 -24 -21 -33.5t-79 -9.5q-66 0 -88 11t-33 48l-18 61h-53q-39 0 -74 3l-31 -64q-19 -36 -42.5 -46.5t-88.5 -12.5q-53 0 -73.5 6.5t-20.5 23.5zM385 494q0 -40 17.5 -53t68.5 -13 q36 0 56.5 7t31.5 26q25 42 25 143q0 40 -18.5 54t-69.5 14q-36 0 -56.5 -7t-31.5 -26q-23 -39 -23 -145z" />
<glyph unicode="&#xa5;" d="M100 1208q0 44 39 60t117 16q101 0 128.5 -15t39.5 -75l84 -381h12l164 381q18 42 35.5 59t50.5 24t104 7q86 0 115 -12t29 -43q0 -48 -53 -135l-273 -461h94q25 0 34 -9t9 -38q0 -67 -22 -115q-13 -27 -47 -27h-129l-8 -82h135q26 0 35.5 -9.5t9.5 -37.5q0 -76 -15 -106 q-16 -35 -57 -35h-129l-8 -90q-6 -53 -40 -68.5t-126 -15.5q-84 0 -115.5 12.5t-31.5 53.5q0 11 4 47l6 61h-133q-25 0 -35 10t-10 37q0 77 14 109q7 20 20 26t37 6h125l10 82h-135q-25 0 -35 10.5t-10 37.5q0 74 15 108q11 33 57 33h86l-170 459q-27 75 -27 116z" />
<glyph unicode="&#xa6;" horiz-adv-x="419" d="M-8 -330q0 12 6 66l68 641q4 41 30.5 53t98.5 12q67 0 91.5 -9.5t24.5 -41.5q0 -11 -6 -65l-67 -639q-4 -42 -31 -55t-98 -13q-67 0 -92 9.5t-25 41.5zM90 616q0 12 6 66l68 639q4 43 31.5 55.5t99.5 12.5q66 0 90.5 -10t24.5 -42q0 -2 -7 -65l-67 -639 q-4 -43 -30.5 -55.5t-98.5 -12.5q-67 0 -92 9.5t-25 41.5z" />
<glyph unicode="&#xa7;" horiz-adv-x="903" d="M-41 -289q0 77 18 124.5t54 47.5q5 0 96 -12t162 -12q138 0 170 24q20 16 30.5 46t10.5 53q0 29 -16.5 45t-67.5 34l-168 64q-105 40 -158 95.5t-53 146.5q0 110 30 189t87 116l16 10q-68 65 -68 182q0 123 41.5 217t108.5 140q101 73 272 73q180 0 320 -37q27 -8 37 -21 t10 -50q0 -71 -11 -116.5t-25.5 -61t-31.5 -15.5q-5 0 -104 14.5t-180 14.5q-86 0 -107 -27q-12 -12 -19 -37.5t-7 -46.5q0 -24 14.5 -35.5t58.5 -27.5l168 -64q112 -42 161.5 -95.5t49.5 -147.5t-30 -188t-93 -134q68 -56 68 -174q0 -109 -44 -215t-118 -158 q-119 -80 -340 -80q-70 0 -156 10.5t-131 24.5q-32 10 -43.5 28.5t-11.5 55.5zM334 461q0 -33 19.5 -54.5t72.5 -44.5l92 -38q43 52 43 118q0 72 -92 103l-96 35q-39 -42 -39 -119z" />
<glyph unicode="&#xa8;" horiz-adv-x="817" d="M127 1186q0 96 35 131q20 20 50 25.5t103 5.5q80 0 104.5 -18t24.5 -70q0 -96 -34 -130q-20 -20 -51 -26t-103 -6q-80 0 -104.5 19t-24.5 69zM512 1186q0 96 33 131q20 20 50.5 25.5t102.5 5.5q81 0 106 -18.5t25 -69.5q0 -96 -34 -130q-20 -20 -51 -26t-103 -6 q-80 0 -104.5 19t-24.5 69z" />
<glyph unicode="&#xa9;" horiz-adv-x="1853" d="M68 645q0 102 5 183.5t17.5 165t34.5 148t56.5 126.5t82 107.5t112.5 84.5t147.5 62.5t186.5 37t230 13.5t230 -13.5t186 -37t147 -62.5t112.5 -84.5t82 -107.5t56 -126.5t34 -148t17.5 -165t5 -183.5q0 -103 -5 -184.5t-17.5 -165t-34 -148t-56 -127t-82 -107.5 t-112.5 -83.5t-147 -62.5t-186 -37t-230 -13t-230 13t-186.5 37t-147.5 62.5t-112.5 83.5t-82 107.5t-56.5 127t-34.5 148t-17.5 165t-5 184.5zM311 651q0 -103 4.5 -179.5t16.5 -150.5t33 -126t54 -99.5t79.5 -77.5t110.5 -52.5t145.5 -32t185.5 -9.5q103 0 184.5 9.5 t145.5 32t110.5 52.5t80 77t54.5 99.5t33 126.5t16.5 150.5t4.5 179.5q0 100 -4.5 174.5t-16.5 147.5t-33 124.5t-54.5 98t-80 76.5t-110.5 52t-145.5 32t-184.5 10t-185 -10t-145.5 -32t-110.5 -52t-80 -76.5t-54 -98t-33 -124.5t-16.5 -147.5t-4.5 -174.5zM530 643 q0 138 19 234.5t51.5 155t89 90.5t117.5 42.5t151 10.5q73 0 151 -11t122 -26q32 -11 45.5 -37t13.5 -90q0 -125 -51 -125q-6 0 -93 12t-136 12q-45 0 -68.5 -3t-47 -15.5t-33.5 -38.5t-16.5 -69.5t-6.5 -112.5q0 -68 2 -110.5t10 -77t18.5 -51.5t32.5 -28.5t47 -14.5t66 -3 q75 0 150.5 13.5t76.5 13.5q49 0 49 -125q0 -64 -13 -90t-44 -37q-109 -39 -254 -39q-90 0 -152.5 10t-122.5 41.5t-95.5 88t-57 151.5t-21.5 229z" />
<glyph unicode="&#xaa;" horiz-adv-x="788" d="M63 690q0 121 25 297q19 121 56 189.5t87.5 93t128.5 24.5q145 0 187 -106l4 22q8 43 32 58.5t93 15.5q62 0 82 -9.5t20 -39.5q0 -18 -23.5 -243.5t-23.5 -268.5q0 -19 7 -81t7 -73q0 -29 -25 -41t-91 -12q-65 0 -83 13t-24 55l-12 71q-43 -82 -108.5 -118.5 t-157.5 -36.5q-181 0 -181 190zM307 764q0 -39 15.5 -52.5t48.5 -13.5q61 0 92.5 55t40.5 136l10 86q4 40 4 72q0 29 -16 40t-60 11q-55 0 -79.5 -26t-34.5 -101q-21 -157 -21 -207z" />
<glyph unicode="&#xab;" horiz-adv-x="1290" d="M41 444q0 42 10 107t23 94q12 22 30 40t32.5 27t43.5 25l377 207q27 17 53 17q47 0 47 -64q0 -77 -18 -133t-76 -96l-217 -146l-2 -16l186 -152q32 -25 43 -45.5t11 -62.5q0 -178 -68 -178q-17 0 -49 16l-334 207q-27 17 -40 27t-27.5 27.5t-19.5 41t-5 57.5zM655 444 q0 45 9.5 108.5t23.5 92.5q20 44 100 92l381 228q26 16 54 16q47 0 47 -63q0 -75 -18.5 -131t-75.5 -99l-218 -166l-2 -16l183 -172q30 -30 41.5 -51t11.5 -58q0 -178 -68 -178q-23 0 -63 25l-316 219q-53 36 -71.5 64t-18.5 89z" />
<glyph unicode="&#xac;" d="M100 557q0 32 7 79.5t16 68.5q21 45 76 45h594q43 0 61 -11t18 -43q0 -18 -10 -110l-22 -224q-4 -48 -35 -61.5t-113 -13.5q-75 0 -103 11t-28 46q0 9 4 45l10 107h-411q-36 0 -50 12.5t-14 48.5z" />
<glyph unicode="&#xad;" horiz-adv-x="671" d="M37 444q0 38 6.5 86.5t17.5 69.5q20 47 78 47h432q37 0 51.5 -13.5t14.5 -51.5q0 -35 -7.5 -84.5t-17.5 -71.5q-20 -47 -77 -47h-433q-37 0 -51 13t-14 52z" />
<glyph unicode="&#xae;" horiz-adv-x="1853" d="M68 645q0 102 5 183.5t17.5 165t34.5 148t56.5 126.5t82 107.5t112.5 84.5t147.5 62.5t186.5 37t230 13.5t230 -13.5t186 -37t147 -62.5t112.5 -84.5t82 -107.5t56 -126.5t34 -148t17.5 -165t5 -183.5q0 -103 -5 -184.5t-17.5 -165t-34 -148t-56 -127t-82 -107.5 t-112.5 -83.5t-147 -62.5t-186 -37t-230 -13t-230 13t-186.5 37t-147.5 62.5t-112.5 83.5t-82 107.5t-56.5 127t-34.5 148t-17.5 165t-5 184.5zM311 651q0 -103 4.5 -179.5t16.5 -150.5t33 -126t54 -99.5t79.5 -77.5t110.5 -52.5t145.5 -32t185.5 -9.5q103 0 184.5 9.5 t145.5 32t110.5 52.5t80 77t54.5 99.5t33 126.5t16.5 150.5t4.5 179.5q0 100 -4.5 174.5t-16.5 147.5t-33 124.5t-54.5 98t-80 76.5t-110.5 52t-145.5 32t-184.5 10t-185 -10t-145.5 -32t-110.5 -52t-80 -76.5t-54 -98t-33 -124.5t-16.5 -147.5t-4.5 -174.5zM543 227v838 q0 52 16 70t64 24q165 19 364 19q107 0 175 -15t116.5 -55.5t69 -111.5t20.5 -183q0 -105 -32 -169.5t-99 -98.5l129 -266q29 -59 29 -82q0 -29 -27.5 -41.5t-107.5 -12.5q-116 0 -146.5 13t-48.5 73l-84 267h-127v-269q0 -53 -32 -68.5t-124 -15.5q-93 0 -124 15t-31 69z M854 702h84q78 0 101.5 24t23.5 99q0 62 -18 81.5t-84 19.5q-49 0 -107 -4v-220z" />
<glyph unicode="&#xaf;" horiz-adv-x="624" d="M133 1188q0 104 20.5 142t63.5 38h361q32 0 44.5 -15t12.5 -57q0 -104 -20 -142t-62 -38h-363q-32 0 -44.5 15t-12.5 57z" />
<glyph unicode="&#xb0;" horiz-adv-x="735" d="M76 854q0 112 22 215t62 148t105.5 61t172.5 16q162 0 229.5 -46t67.5 -163q0 -111 -21.5 -214t-60.5 -146q-42 -46 -106.5 -62t-173.5 -16q-163 0 -230 45t-67 162zM326 920q0 -34 15 -44t56 -10q33 0 51 8.5t25 30.5q16 43 16 115q0 32 -15.5 42.5t-55.5 10.5 q-34 0 -52.5 -8.5t-25.5 -32.5q-14 -38 -14 -112z" />
<glyph unicode="&#xb1;" d="M133 94q0 94 21 137q19 39 67 39h467q32 0 44.5 -12t12.5 -45q0 -31 -6 -73.5t-14 -61.5q-19 -41 -70 -41h-465q-32 0 -44.5 12t-12.5 45zM164 616q0 29 6 68t14 57q19 39 64 39h131l16 148q4 45 28.5 57t104.5 12q71 0 94 -10t23 -43q0 -20 -6 -86l-8 -78h137 q29 0 41 -11t12 -42q0 -29 -6 -68t-14 -57q-19 -39 -64 -39h-131l-14 -141q-4 -44 -29.5 -57t-101.5 -13q-71 0 -95 10.5t-24 43.5q0 16 14 157h-139q-29 0 -41 11t-12 42z" />
<glyph unicode="&#xb2;" horiz-adv-x="698" d="M86 651q0 64 16 105q10 34 76 100l148 152q75 78 75 125q0 24 -10.5 31t-36.5 7q-22 0 -76.5 -8t-72.5 -8q-29 0 -29 68q0 57 8 87t20.5 40.5t37.5 17.5q102 25 200 25q42 0 73 -3t65.5 -12.5t56 -27t35.5 -48t14 -73.5q0 -98 -33 -163t-104 -136l-117 -119h170 q26 0 37.5 -12t11.5 -45q0 -87 -16.5 -119.5t-50.5 -32.5h-428q-40 0 -55 9t-15 40z" />
<glyph unicode="&#xb3;" horiz-adv-x="690" d="M86 674q0 41 12 87t39 46q17 0 66 -8t78 -8q54 0 82 15.5t28 61.5q0 30 -25 42t-96 12q-22 0 -30.5 11t-8.5 34q0 42 13 72t41 30q77 0 105 16t28 54q0 29 -16.5 40t-49.5 11q-34 0 -92 -7t-74 -7q-11 0 -16 2t-8.5 11.5t-3.5 29.5q0 86 14.5 114.5t48.5 36.5 q123 25 215 25q53 0 90 -5.5t74 -22t56.5 -51.5t19.5 -89q0 -96 -44 -159t-120 -75q141 -6 141 -159q0 -63 -20.5 -110t-50 -72.5t-74 -40.5t-81.5 -19t-83 -4q-115 0 -213 24q-26 7 -35.5 18t-9.5 44z" />
<glyph unicode="&#xb4;" horiz-adv-x="505" d="M154 1153q0 30 30 100l43 113q17 46 33 65.5t53.5 30.5t110.5 11q64 0 97.5 -6.5t42.5 -17t9 -30.5q0 -30 -51 -119l-67 -116q-18 -31 -33.5 -46t-52.5 -25.5t-99 -10.5q-68 0 -92 11.5t-24 39.5z" />
<glyph unicode="&#xb5;" horiz-adv-x="1040" d="M12 -315q0 13 4 49l78 727q7 72 15.5 144t12 105t3.5 54q0 27 -6 88t-6 74q0 47 32 66.5t119 19.5q72 0 106 -12.5t48 -43.5q16 -40 16 -131q0 -68 -24.5 -284.5t-24.5 -239.5q0 -37 19 -50t61 -13q84 0 123.5 63.5t50.5 183.5l47 443q6 55 39.5 69.5t130.5 14.5 q83 0 112 -12t29 -52q0 -24 -30.5 -322.5t-30.5 -353.5q0 -24 9 -105t9 -97q0 -37 -33 -53.5t-120 -16.5q-57 0 -83.5 8.5t-35.5 24.5t-16 55l-17 92q-88 -180 -295 -198l-28 -279q-6 -53 -39.5 -68.5t-124.5 -15.5q-85 0 -117.5 12.5t-32.5 53.5z" />
<glyph unicode="&#xb6;" horiz-adv-x="1198" d="M66 522q0 152 29.5 348t78.5 273q88 141 272 141h734q33 0 47 -16.5t14 -61.5q0 -78 -11 -121.5t-29.5 -58t-49.5 -14.5h-61l-95 -901q-10 -96 -31 -172t-50 -130t-70 -93t-84 -63t-100 -37.5t-111 -18.5t-123 -5q-66 0 -150.5 10t-134.5 25q-47 13 -47 80q0 66 16.5 119 t55.5 53q4 0 93 -10t161 -10q84 0 132 9.5t80 40t45.5 76.5t22.5 130l95 897h-138l-67 -645q-6 -64 -51 -76q-74 -23 -191 -23q-282 0 -282 254z" />
<glyph unicode="&#xb7;" horiz-adv-x="415" d="M47 500q0 13 12 118q5 50 19 72t46.5 31.5t102.5 9.5q88 0 118 -15.5t30 -64.5q0 -34 -10 -119q-8 -71 -38.5 -91.5t-131.5 -20.5q-88 0 -118 15.5t-30 64.5z" />
<glyph unicode="&#xb8;" horiz-adv-x="540" d="M-68 -408q0 21 3 43t10 47t21.5 40.5t35.5 15.5q11 0 49.5 -5t63.5 -5q39 0 41 20q0 18 -47 39q-37 18 -51.5 36.5t-14.5 55.5q0 16 18 166h215q-8 -88 -8 -92q0 -18 23 -31q68 -35 94.5 -69t26.5 -93q0 -251 -283 -254q-81 0 -143 15q-30 7 -42 20t-12 51z" />
<glyph unicode="&#xb9;" horiz-adv-x="675" d="M109 662q0 85 17.5 117t51.5 32h68l33 317l-46 -10q-30 -6 -51 -6q-35 0 -35 53q0 133 66 156l125 47q52 18 137 18q46 0 65 -9.5t19 -39.5q0 -3 -12 -123l-43 -403h67q26 0 36.5 -12t10.5 -45q0 -87 -16.5 -119.5t-50.5 -32.5h-393q-26 0 -37.5 13.5t-11.5 46.5z" />
<glyph unicode="&#xba;" horiz-adv-x="749" d="M72 737q0 120 24 268t78 205q44 48 115 66t172 18q72 0 122 -9.5t91.5 -34.5t61.5 -73.5t20 -121.5q0 -118 -25.5 -268t-79.5 -207q-78 -84 -284 -84q-72 0 -122 9.5t-91.5 35t-61.5 74.5t-20 122zM313 774q0 -45 18 -61.5t56 -16.5q58 0 82 41q17 32 29 129t12 152 q0 45 -18.5 61.5t-57.5 16.5q-56 0 -80 -41q-17 -32 -29 -129t-12 -152z" />
<glyph unicode="&#xbb;" horiz-adv-x="1290" d="M27 111q0 76 18.5 131t75.5 100l217 164l2 16l-180 174q-31 31 -43.5 52t-12.5 55q0 178 68 178q26 0 64 -25l315 -217q39 -28 54 -41.5t26.5 -42t11.5 -71.5q0 -45 -9.5 -107.5t-23.5 -91.5q-9 -19 -26.5 -36.5t-32 -28t-41.5 -27.5l-383 -230q-32 -16 -51 -16 q-49 0 -49 64zM639 131q0 79 18.5 135t77.5 96l215 144l2 16l-184 154q-32 25 -43.5 45.5t-11.5 60.5q0 179 69 179q22 0 49 -17l332 -205q51 -32 71.5 -61t20.5 -94q0 -45 -9 -108t-23 -91q-17 -33 -40.5 -52t-66.5 -42l-377 -207q-32 -16 -51 -16q-49 0 -49 63z" />
<glyph unicode="&#xbc;" horiz-adv-x="1736" d="M102 584q0 85 17.5 117t50.5 32h70l32 318l-45 -11q-31 -8 -51 -8q-37 0 -37 55q0 132 68 156l123 47q55 19 137 19q46 0 65 -9.5t19 -39.5q0 -23 -10 -123l-45 -404h67q26 0 36.5 -12t10.5 -45q0 -87 -16.5 -119.5t-50.5 -32.5h-391q-27 0 -38.5 13.5t-11.5 46.5z M469 39q0 25 27 86l518 1112q21 44 48.5 59t98.5 15q59 0 83 -9.5t24 -31.5q0 -19 -29 -84l-516 -1114q-20 -43 -52 -57.5t-104 -14.5q-59 0 -78.5 9t-19.5 30zM973 221q0 129 57 211l209 291q30 41 67.5 54.5t133.5 13.5t130 -12.5t34 -55.5q0 -2 -2.5 -24.5t-5.5 -55.5 t-5 -53l-26 -260h49q23 0 32 -9t9 -34q0 -140 -58 -140h-53l-8 -90q-3 -34 -31.5 -43.5t-91.5 -9.5t-91 8t-28 35q0 10 6 78l3 22h-275q-55 0 -55 74zM1194 330h137l29 260z" />
<glyph unicode="&#xbd;" horiz-adv-x="1695" d="M102 584q0 85 17.5 117t50.5 32h70l32 318l-45 -11q-31 -8 -51 -8q-37 0 -37 55q0 132 68 156l123 47q55 19 137 19q46 0 65 -9.5t19 -39.5q0 -23 -10 -123l-45 -404h67q26 0 36.5 -12t10.5 -45q0 -87 -16.5 -119.5t-50.5 -32.5h-391q-27 0 -38.5 13.5t-11.5 46.5z M469 39q0 25 27 86l518 1112q21 44 48.5 59t98.5 15q59 0 83 -9.5t24 -31.5q0 -19 -29 -84l-516 -1114q-20 -43 -52 -57.5t-104 -14.5q-59 0 -78.5 9t-19.5 30zM1040 49q0 62 17 103q10 36 76 102l147 149q76 76 76 127q0 24 -10.5 31.5t-36.5 7.5q-22 0 -77 -8t-73 -8 q-29 0 -29 68q0 81 14.5 108t51.5 37q90 22 201 22q42 0 73 -2.5t65 -12.5t55.5 -26.5t35.5 -47t14 -72.5q0 -99 -32.5 -165t-102.5 -136l-119 -119h173q25 0 36 -12t11 -45q0 -85 -17 -117.5t-51 -32.5h-428q-40 0 -55 9t-15 40z" />
<glyph unicode="&#xbe;" horiz-adv-x="1746" d="M84 588q0 42 12 86.5t39 44.5q17 0 66 -7t78 -7q54 0 82 15.5t28 59.5q0 31 -24.5 42.5t-96.5 11.5q-22 0 -30.5 11t-8.5 36q0 42 13 72t41 30q78 0 105.5 15t27.5 53q0 30 -16 40.5t-50 10.5t-92 -6t-74 -6q-11 0 -16 1.5t-8.5 10.5t-3.5 28q0 87 14.5 116.5t48.5 37.5 q123 25 215 25q53 0 90 -5.5t74 -22t56.5 -51.5t19.5 -89q0 -96 -44 -160t-120 -76q141 -3 141 -157q0 -63 -20 -110t-50 -73t-74 -41t-81.5 -19.5t-83.5 -4.5q-107 0 -213 26q-26 7 -35.5 18t-9.5 44zM479 39q0 25 27 86l518 1112q21 44 48 59t97 15q61 0 85 -9.5t24 -31.5 q0 -19 -29 -84l-516 -1114q-20 -43 -51.5 -57.5t-103.5 -14.5q-59 0 -79 9t-20 30zM983 221q0 132 57 211l207 291q30 42 68 55t135 13q96 0 130 -12.5t34 -55.5q0 -2 -2 -24.5t-5 -56t-5 -52.5l-27 -260h49q23 0 32 -9t9 -34q0 -140 -57 -140h-54l-8 -90 q-4 -34 -32.5 -43.5t-90.5 -9.5q-63 0 -91.5 8t-28.5 35q0 1 1 11t2.5 28.5t2.5 38.5l2 22h-273q-55 0 -55 74zM1202 330h139l29 260z" />
<glyph unicode="&#xbf;" horiz-adv-x="751" d="M-6 227q0 104 30 181.5t113 160.5l115 115q23 24 34 48t15 63l4 53q4 53 36 68.5t112 15.5q73 0 102 -13t29 -53q0 -2 -13 -116q-6 -54 -22 -88t-51 -70l-115 -117q-68 -68 -68 -143q0 -39 22.5 -52.5t76.5 -13.5q64 0 142.5 12.5t96.5 12.5q39 0 39 -66 q0 -64 -19 -120.5t-55 -67.5q-119 -39 -305 -39q-53 0 -96 5.5t-86 20.5t-72 40t-47 66.5t-18 96.5zM313 1083q0 32 9 103q9 70 38 88t129 18q88 0 119 -13.5t31 -53.5q0 -38 -8 -101q-7 -70 -37.5 -89t-130.5 -19q-88 0 -119 13.5t-31 53.5z" />
<glyph unicode="&#xc0;" horiz-adv-x="1122" d="M-23 55q0 40 25 111l334 973q33 95 89 120t218 25q69 0 109.5 -3t74 -11t50.5 -24.5t27.5 -41.5t15.5 -65l127 -969q6 -56 6 -80q0 -38 -9 -55t-42.5 -26t-104.5 -9q-72 0 -103.5 7t-45.5 25t-19 60l-27 213h-329l-68 -215q-19 -58 -51.5 -74t-134.5 -16q-85 0 -113.5 12 t-28.5 43zM416 1671q0 45 37 58.5t135 13.5q94 0 124.5 -20t45.5 -87l28 -120q19 -83 19 -95q0 -28 -26.5 -38.5t-108.5 -10.5q-35 0 -55 0.5t-38 5t-25.5 7.5t-17.5 15.5t-14.5 21t-15.5 32.5l-53 115q-35 76 -35 102zM446 537h236l-51 491h-29z" />
<glyph unicode="&#xc1;" horiz-adv-x="1122" d="M-23 55q0 40 25 111l334 973q33 95 89 120t218 25q69 0 109.5 -3t74 -11t50.5 -24.5t27.5 -41.5t15.5 -65l127 -969q6 -56 6 -80q0 -38 -9 -55t-42.5 -26t-104.5 -9q-72 0 -103.5 7t-45.5 25t-19 60l-27 213h-329l-68 -215q-19 -58 -51.5 -74t-134.5 -16q-85 0 -113.5 12 t-28.5 43zM446 537h236l-51 491h-29zM514 1423q0 29 31 101l43 112q13 35 23 52t31 31.5t53.5 19t88.5 4.5q93 0 121.5 -12t28.5 -41q0 -30 -51 -119l-68 -117q-18 -31 -33.5 -46t-52 -25.5t-98.5 -10.5q-68 0 -92.5 12t-24.5 39z" />
<glyph unicode="&#xc2;" horiz-adv-x="1122" d="M-23 55q0 40 25 111l334 973q33 95 89 120t218 25q69 0 109.5 -3t74 -11t50.5 -24.5t27.5 -41.5t15.5 -65l127 -969q6 -56 6 -80q0 -38 -9 -55t-42.5 -26t-104.5 -9q-72 0 -103.5 7t-45.5 25t-19 60l-27 213h-329l-68 -215q-19 -58 -51.5 -74t-134.5 -16q-85 0 -113.5 12 t-28.5 43zM336 1413q0 22 59 103l121 165q27 36 54.5 49t80.5 13h72q47 0 71 -14t44 -48l94 -170q3 -5 11 -19.5t11.5 -21.5l9 -18t7.5 -19.5t2 -15.5q0 -28 -23 -36.5t-88 -8.5q-61 0 -83.5 12.5t-51.5 55.5l-55 88h-13l-71 -88q-38 -45 -63 -56.5t-85 -11.5t-82 8.5 t-22 32.5zM446 537h236l-51 491h-29z" />
<glyph unicode="&#xc3;" horiz-adv-x="1122" d="M-23 55q0 40 25 111l334 973q33 95 89 120t218 25q69 0 109.5 -3t74 -11t50.5 -24.5t27.5 -41.5t15.5 -65l127 -969q6 -56 6 -80q0 -38 -9 -55t-42.5 -26t-104.5 -9q-72 0 -103.5 7t-45.5 25t-19 60l-27 213h-329l-68 -215q-19 -58 -51.5 -74t-134.5 -16q-85 0 -113.5 12 t-28.5 43zM336 1430q0 82 15.5 126t51.5 66q73 35 152 35q58 0 135 -17.5t115 -17.5q44 0 91 12.5t56 12.5q16 0 23.5 -10t7.5 -38q0 -82 -16 -125.5t-52 -64.5q-24 -14 -66 -25.5t-85 -11.5q-58 0 -135 18.5t-115 18.5q-45 0 -92 -12.5t-55 -12.5q-16 0 -23.5 9t-7.5 37z M446 537h236l-51 491h-29z" />
<glyph unicode="&#xc4;" horiz-adv-x="1122" d="M-23 55q0 40 25 111l334 973q33 95 89 120t218 25q69 0 109.5 -3t74 -11t50.5 -24.5t27.5 -41.5t15.5 -65l127 -969q6 -56 6 -80q0 -38 -9 -55t-42.5 -26t-104.5 -9q-72 0 -103.5 7t-45.5 25t-19 60l-27 213h-329l-68 -215q-19 -58 -51.5 -74t-134.5 -16q-85 0 -113.5 12 t-28.5 43zM309 1456q0 96 35 131q20 20 50.5 25.5t103.5 5.5q80 0 104.5 -18t24.5 -70q0 -94 -35 -129q-20 -20 -51 -26.5t-103 -6.5q-80 0 -104.5 19t-24.5 69zM446 537h236l-51 491h-29zM694 1456q0 96 33 131q19 19 50.5 25t103.5 6q81 0 106 -18.5t25 -69.5 q0 -94 -35 -129q-20 -20 -51 -26.5t-103 -6.5q-80 0 -104.5 19t-24.5 69z" />
<glyph unicode="&#xc5;" horiz-adv-x="1122" d="M-23 55q0 40 25 111l334 973q33 95 89 120t218 25q69 0 109.5 -3t74 -11t50.5 -24.5t27.5 -41.5t15.5 -65l127 -969q6 -56 6 -80q0 -38 -9 -55t-42.5 -26t-104.5 -9q-72 0 -103.5 7t-45.5 25t-19 60l-27 213h-329l-68 -215q-19 -58 -51.5 -74t-134.5 -16q-85 0 -113.5 12 t-28.5 43zM377 1575q0 147 80.5 216t238.5 69q136 0 202.5 -47.5t66.5 -159.5q0 -146 -80.5 -214.5t-239.5 -68.5q-133 0 -200.5 49t-67.5 156zM446 537h236l-51 491h-29zM588 1599q0 -25 15 -32.5t61 -7.5q58 0 74 15t16 58q0 23 -16 32t-60 9q-56 0 -73 -15.5t-17 -58.5z " />
<glyph unicode="&#xc6;" horiz-adv-x="1517" d="M-23 55q0 31 25 111l334 973q33 95 89 120t218 25h823q35 0 49.5 -16.5t14.5 -61.5q0 -113 -22.5 -153.5t-69.5 -40.5h-389l-23 -209h252q38 0 51.5 -13.5t13.5 -54.5q0 -119 -21 -159.5t-71 -40.5h-254l-26 -263h409q35 0 49.5 -16.5t14.5 -62.5q0 -111 -23 -152 t-69 -41h-635q-44 0 -62 11t-18 44q0 15 4 47l21 203h-287l-70 -215q-19 -58 -51.5 -74t-134.5 -16q-85 0 -113.5 12t-28.5 43zM444 537h242l51 491h-135z" />
<glyph unicode="&#xc7;" horiz-adv-x="931" d="M49 350q0 119 28 343t73 337q20 50 46 89.5t53.5 67t62 47.5t66.5 31.5t71.5 18t72 8.5t72.5 2q171 0 307 -39q21 -5 30 -19t9 -52q0 -93 -17.5 -142t-41.5 -49q-6 0 -86 13.5t-154 13.5q-96 0 -143.5 -25.5t-73.5 -107.5q-23 -73 -39 -237.5t-16 -233.5q0 -96 42 -125 t152 -29q79 0 156 13.5t88 13.5q18 0 25.5 -13t7.5 -45q0 -111 -18.5 -153t-49.5 -51q-99 -27 -209 -35q-2 -16 -2 -39q0 -18 23 -31q68 -35 94.5 -69t26.5 -93q0 -251 -283 -254q-82 0 -143 15q-30 7 -42 20t-12 51q0 21 3 43t10 47t21.5 40.5t35.5 15.5q11 0 49.5 -5 t63.5 -5q21 0 30.5 4t10.5 16q0 18 -48 39q-37 18 -51 36.5t-14 55.5q0 17 12 115q-69 7 -121 28t-93.5 61t-63 107t-21.5 160z" />
<glyph unicode="&#xc8;" horiz-adv-x="925" d="M39 55q0 12 20 201l101 952q4 47 24.5 61.5t69.5 14.5h623q33 0 47 -16.5t14 -61.5q0 -78 -11 -121.5t-29.5 -58t-49.5 -14.5h-395l-23 -209h258q36 0 50 -14t14 -54q0 -119 -20 -159.5t-70 -40.5h-261l-26 -263h416q35 0 49 -16.5t14 -62.5q0 -111 -23 -152t-69 -41 h-643q-43 0 -61.5 11t-18.5 44zM344 1671q0 45 37 58.5t135 13.5q94 0 124.5 -20t45.5 -87l29 -120q18 -79 18 -95q0 -28 -26.5 -38.5t-108.5 -10.5q-35 0 -55 0.5t-38 5t-25.5 7.5t-17.5 15.5t-14.5 21t-15.5 32.5l-53 115q-35 76 -35 102z" />
<glyph unicode="&#xc9;" horiz-adv-x="925" d="M39 55q0 12 20 201l101 952q4 47 24.5 61.5t69.5 14.5h623q33 0 47 -16.5t14 -61.5q0 -78 -11 -121.5t-29.5 -58t-49.5 -14.5h-395l-23 -209h258q36 0 50 -14t14 -54q0 -119 -20 -159.5t-70 -40.5h-261l-26 -263h416q35 0 49 -16.5t14 -62.5q0 -111 -23 -152t-69 -41 h-643q-43 0 -61.5 11t-18.5 44zM377 1423q0 29 31 101l43 112q13 35 23 52t31 31.5t53.5 19t88.5 4.5q93 0 121.5 -12t28.5 -41q0 -28 -52 -119l-67 -117q-18 -31 -33.5 -46t-52 -25.5t-98.5 -10.5q-68 0 -92.5 12t-24.5 39z" />
<glyph unicode="&#xca;" horiz-adv-x="925" d="M39 55q0 12 20 201l101 952q4 47 24.5 61.5t69.5 14.5h623q33 0 47 -16.5t14 -61.5q0 -78 -11 -121.5t-29.5 -58t-49.5 -14.5h-395l-23 -209h258q36 0 50 -14t14 -54q0 -119 -20 -159.5t-70 -40.5h-261l-26 -263h416q35 0 49 -16.5t14 -62.5q0 -111 -23 -152t-69 -41 h-643q-43 0 -61.5 11t-18.5 44zM246 1413q0 22 59 103l121 165q27 36 54.5 49t80.5 13h72q47 0 71 -14t44 -48l94 -170q3 -5 11 -19.5t11.5 -21.5l9 -18t7.5 -19.5t2 -15.5q0 -28 -23 -36.5t-88 -8.5q-61 0 -83.5 12.5t-51.5 55.5l-55 88h-13l-71 -88q-38 -45 -63 -56.5 t-85 -11.5t-82 8.5t-22 32.5z" />
<glyph unicode="&#xcb;" horiz-adv-x="925" d="M39 55q0 12 20 201l101 952q4 47 24.5 61.5t69.5 14.5h623q33 0 47 -16.5t14 -61.5q0 -78 -11 -121.5t-29.5 -58t-49.5 -14.5h-395l-23 -209h258q36 0 50 -14t14 -54q0 -119 -20 -159.5t-70 -40.5h-261l-26 -263h416q35 0 49 -16.5t14 -62.5q0 -111 -23 -152t-69 -41 h-643q-43 0 -61.5 11t-18.5 44zM223 1456q0 96 35 131q20 20 50.5 25.5t103.5 5.5q80 0 104.5 -18t24.5 -70q0 -94 -35 -129q-20 -20 -51 -26.5t-103 -6.5q-80 0 -104.5 19t-24.5 69zM608 1456q0 96 33 131q19 19 50.5 25t103.5 6q81 0 106 -18.5t25 -69.5q0 -94 -35 -129 q-20 -20 -51 -26.5t-103 -6.5q-80 0 -104.5 19t-24.5 69z" />
<glyph unicode="&#xcc;" horiz-adv-x="489" d="M39 66q0 11 4 47l115 1087q6 53 39 68.5t125 15.5q85 0 116 -12t31 -53q0 -9 -12 -129l-105 -1006q-6 -53 -40 -68.5t-126 -15.5q-84 0 -115.5 12.5t-31.5 53.5zM92 1671q0 45 37 58.5t135 13.5q94 0 124.5 -20t45.5 -87l29 -120q18 -79 18 -95q0 -28 -26.5 -38.5 t-108.5 -10.5q-35 0 -55 0.5t-38 5t-25.5 7.5t-17.5 15.5t-14.5 21t-15.5 32.5l-53 115q-35 76 -35 102z" />
<glyph unicode="&#xcd;" horiz-adv-x="489" d="M39 66q0 11 4 47l115 1087q6 53 39 68.5t125 15.5q85 0 116 -12t31 -53q0 -9 -12 -129l-105 -1006q-6 -53 -40 -68.5t-126 -15.5q-84 0 -115.5 12.5t-31.5 53.5zM201 1423q0 31 30 101l43 112q17 46 33 65.5t53.5 30.5t110.5 11q93 0 121.5 -12t28.5 -41q0 -28 -52 -119 l-67 -117q-18 -31 -33.5 -46t-52.5 -25.5t-99 -10.5q-68 0 -92 11.5t-24 39.5z" />
<glyph unicode="&#xce;" horiz-adv-x="489" d="M14 1413q0 21 60 103l121 165q27 36 54.5 49t80.5 13h71q47 0 71 -14t44 -48l94 -170q3 -5 11 -19.5t11.5 -21.5l9 -18t7.5 -19.5t2 -15.5q0 -28 -23 -36.5t-87 -8.5q-61 0 -83.5 12.5t-51.5 55.5l-56 88h-12l-72 -88q-38 -46 -62.5 -57t-84.5 -11t-82.5 8.5t-22.5 32.5z M39 66q0 11 4 47l115 1087q6 53 39 68.5t125 15.5q85 0 116 -12t31 -53q0 -9 -12 -129l-105 -1006q-6 -53 -40 -68.5t-126 -15.5q-84 0 -115.5 12.5t-31.5 53.5z" />
<glyph unicode="&#xcf;" horiz-adv-x="489" d="M-2 1456q0 96 35 131q20 20 50 25.5t103 5.5q80 0 104.5 -18t24.5 -70q0 -95 -34 -129q-20 -20 -51 -26.5t-103 -6.5q-80 0 -104.5 19t-24.5 69zM39 66q0 11 4 47l115 1087q6 53 39 68.5t125 15.5q85 0 116 -12t31 -53q0 -9 -12 -129l-105 -1006q-6 -53 -40 -68.5 t-126 -15.5q-84 0 -115.5 12.5t-31.5 53.5zM383 1456q0 96 33 131q20 20 50.5 25.5t102.5 5.5q81 0 106 -18.5t25 -69.5q0 -95 -34 -129q-20 -20 -51 -26.5t-103 -6.5q-80 0 -104.5 19t-24.5 69z" />
<glyph unicode="&#xd0;" horiz-adv-x="1079" d="M0 596q0 104 20 142t62 38h29l45 408q6 54 24 72t66 24q106 14 303 14q72 0 122.5 -3t106.5 -12t94 -26t74 -45.5t57 -69.5t33.5 -99.5t12.5 -133.5q0 -71 -27 -332q-9 -91 -25.5 -166t-36.5 -131t-49.5 -100t-58.5 -74.5t-69.5 -51.5t-75.5 -33t-83.5 -18.5t-87.5 -8.5 t-94 -2q-204 0 -333 14q-41 4 -56.5 16.5t-15.5 40.5q0 19 6 68l41 397h-27q-32 0 -44.5 15t-12.5 57zM369 264q43 -6 102 -6q46 0 73.5 3t55 14.5t42.5 31t29.5 56t23 86t16.5 124.5q24 208 24 283q0 107 -42 145.5t-156 38.5q-59 0 -86 -6l-29 -258h70q32 0 44.5 -14.5 t12.5 -56.5q0 -104 -21 -142.5t-63 -38.5h-70z" />
<glyph unicode="&#xd1;" horiz-adv-x="1146" d="M39 66q0 11 4 47l115 1087q6 53 37.5 68.5t113.5 15.5q77 0 112 -14.5t54 -50.5q27 -54 126 -279.5t144 -316.5h21q15 251 49 577q6 53 39 68.5t125 15.5q85 0 116 -12t31 -53q0 -21 -6 -89l-110 -1046q-6 -53 -38.5 -68.5t-119.5 -15.5q-65 0 -96 14t-49 54l-281 632 h-20q-2 -56 -8 -128t-12 -131.5t-17.5 -170t-18.5 -186.5q-4 -53 -37.5 -68.5t-126.5 -15.5q-84 0 -115.5 12.5t-31.5 53.5zM338 1430q0 82 16 126t52 66q72 35 151 35q58 0 135 -17.5t115 -17.5q44 0 91 12.5t56 12.5q16 0 23.5 -10t7.5 -38q0 -82 -15.5 -126t-51.5 -64 q-24 -14 -66.5 -25.5t-85.5 -11.5q-58 0 -135 18.5t-115 18.5q-45 0 -92 -12.5t-55 -12.5q-16 0 -23.5 9t-7.5 37z" />
<glyph unicode="&#xd2;" horiz-adv-x="1075" d="M51 375q0 83 24.5 306t53.5 318q23 77 56 130t72 85.5t96.5 50t117.5 23.5t147 6q75 0 128 -5t105 -19t85.5 -41t60 -69.5t38.5 -105t12 -147.5q0 -83 -24.5 -306t-53.5 -318q-23 -77 -56 -130t-72 -85.5t-97 -50t-118 -23.5t-147 -6q-64 0 -111 3.5t-94 13.5t-79.5 27.5 t-61.5 46.5t-46 69.5t-26.5 97t-9.5 129.5zM367 403q0 -49 7 -78.5t25 -45t42.5 -20.5t66.5 -5q77 0 113.5 22t54.5 95q19 81 37 259.5t18 248.5q0 49 -7 78.5t-25 45t-42.5 20.5t-66.5 5q-77 0 -113.5 -22t-54.5 -95q-19 -81 -37 -259.5t-18 -248.5zM379 1671q0 45 37 58.5 t135 13.5q94 0 124.5 -20t45.5 -87l29 -120q18 -79 18 -95q0 -28 -26.5 -38.5t-108.5 -10.5q-35 0 -55 0.5t-38 5t-25.5 7.5t-17.5 15.5t-14.5 21t-15.5 32.5l-53 115q-35 76 -35 102z" />
<glyph unicode="&#xd3;" horiz-adv-x="1075" d="M51 375q0 83 24.5 306t53.5 318q23 77 56 130t72 85.5t96.5 50t117.5 23.5t147 6q75 0 128 -5t105 -19t85.5 -41t60 -69.5t38.5 -105t12 -147.5q0 -83 -24.5 -306t-53.5 -318q-23 -77 -56 -130t-72 -85.5t-97 -50t-118 -23.5t-147 -6q-64 0 -111 3.5t-94 13.5t-79.5 27.5 t-61.5 46.5t-46 69.5t-26.5 97t-9.5 129.5zM367 403q0 -49 7 -78.5t25 -45t42.5 -20.5t66.5 -5q77 0 113.5 22t54.5 95q19 81 37 259.5t18 248.5q0 49 -7 78.5t-25 45t-42.5 20.5t-66.5 5q-77 0 -113.5 -22t-54.5 -95q-19 -81 -37 -259.5t-18 -248.5zM465 1423q0 29 31 101 l43 112q13 35 23 52t31 31.5t53.5 19t88.5 4.5q93 0 121.5 -12t28.5 -41q0 -30 -51 -119l-68 -117q-18 -31 -33.5 -46t-52 -25.5t-98.5 -10.5q-68 0 -92.5 12t-24.5 39z" />
<glyph unicode="&#xd4;" horiz-adv-x="1075" d="M51 375q0 83 24.5 306t53.5 318q23 77 56 130t72 85.5t96.5 50t117.5 23.5t147 6q75 0 128 -5t105 -19t85.5 -41t60 -69.5t38.5 -105t12 -147.5q0 -83 -24.5 -306t-53.5 -318q-23 -77 -56 -130t-72 -85.5t-97 -50t-118 -23.5t-147 -6q-64 0 -111 3.5t-94 13.5t-79.5 27.5 t-61.5 46.5t-46 69.5t-26.5 97t-9.5 129.5zM303 1413q0 22 59 103l121 165q27 36 54.5 49t80.5 13h72q47 0 71 -14t44 -48l94 -170q3 -5 11 -19.5t11.5 -21.5l9 -18t7.5 -19.5t2 -15.5q0 -28 -23 -36.5t-88 -8.5q-61 0 -83.5 12.5t-51.5 55.5l-55 88h-12l-72 -88 q-38 -46 -62.5 -57t-84.5 -11t-82.5 8.5t-22.5 32.5zM367 403q0 -49 7 -78.5t25 -45t42.5 -20.5t66.5 -5q77 0 113.5 22t54.5 95q19 81 37 259.5t18 248.5q0 49 -7 78.5t-25 45t-42.5 20.5t-66.5 5q-77 0 -113.5 -22t-54.5 -95q-19 -81 -37 -259.5t-18 -248.5z" />
<glyph unicode="&#xd5;" horiz-adv-x="1075" d="M51 375q0 83 24.5 306t53.5 318q23 77 56 130t72 85.5t96.5 50t117.5 23.5t147 6q75 0 128 -5t105 -19t85.5 -41t60 -69.5t38.5 -105t12 -147.5q0 -83 -24.5 -306t-53.5 -318q-23 -77 -56 -130t-72 -85.5t-97 -50t-118 -23.5t-147 -6q-64 0 -111 3.5t-94 13.5t-79.5 27.5 t-61.5 46.5t-46 69.5t-26.5 97t-9.5 129.5zM305 1430q0 82 16 126t52 66q73 35 151 35q58 0 135 -17.5t115 -17.5q44 0 91.5 12.5t56.5 12.5q16 0 23 -10t7 -38q0 -82 -15.5 -126t-51.5 -64q-24 -14 -66.5 -25.5t-85.5 -11.5q-58 0 -135 18.5t-115 18.5q-45 0 -92 -12.5 t-55 -12.5q-16 0 -23.5 9t-7.5 37zM367 403q0 -49 7 -78.5t25 -45t42.5 -20.5t66.5 -5q77 0 113.5 22t54.5 95q19 81 37 259.5t18 248.5q0 49 -7 78.5t-25 45t-42.5 20.5t-66.5 5q-77 0 -113.5 -22t-54.5 -95q-19 -81 -37 -259.5t-18 -248.5z" />
<glyph unicode="&#xd6;" horiz-adv-x="1075" d="M51 375q0 83 24.5 306t53.5 318q23 77 56 130t72 85.5t96.5 50t117.5 23.5t147 6q75 0 128 -5t105 -19t85.5 -41t60 -69.5t38.5 -105t12 -147.5q0 -83 -24.5 -306t-53.5 -318q-23 -77 -56 -130t-72 -85.5t-97 -50t-118 -23.5t-147 -6q-64 0 -111 3.5t-94 13.5t-79.5 27.5 t-61.5 46.5t-46 69.5t-26.5 97t-9.5 129.5zM287 1456q0 96 35 131q20 20 50 25.5t103 5.5q80 0 104.5 -18t24.5 -70q0 -94 -35 -129q-20 -20 -51 -26.5t-102 -6.5q-80 0 -104.5 19t-24.5 69zM367 403q0 -49 7 -78.5t25 -45t42.5 -20.5t66.5 -5q77 0 113.5 22t54.5 95 q19 81 37 259.5t18 248.5q0 49 -7 78.5t-25 45t-42.5 20.5t-66.5 5q-77 0 -113.5 -22t-54.5 -95q-19 -81 -37 -259.5t-18 -248.5zM672 1456q0 96 33 131q20 20 50.5 25.5t102.5 5.5q81 0 106 -18.5t25 -69.5q0 -94 -35 -129q-20 -20 -51 -26.5t-102 -6.5q-80 0 -104.5 19 t-24.5 69z" />
<glyph unicode="&#xd7;" d="M106 240q0 21 48 79l186 230l-129 225q-39 70 -39 92t24.5 32.5t86.5 10.5q60 0 91 -9.5t44 -33.5l76 -139l104 139q18 24 48.5 33.5t88.5 9.5q105 0 105 -37q-3 -32 -45 -84l-191 -241l141 -230q27 -50 29 -73q0 -45 -112 -45q-109 0 -134 43l-77 131l-95 -121 q-24 -31 -56 -42t-91 -11q-60 0 -81.5 10t-21.5 31z" />
<glyph unicode="&#xd8;" horiz-adv-x="1075" d="M51 375q0 83 24.5 306t53.5 318q23 77 56 130t72 85.5t96.5 50t117.5 23.5t147 6q75 0 128 -5t105 -19t85.5 -41t60 -69.5t38.5 -105t12 -147.5q0 -83 -24.5 -306t-53.5 -318q-23 -77 -56 -130t-72 -85.5t-97 -50t-118 -23.5t-147 -6q-64 0 -111 3.5t-94 13.5t-79.5 27.5 t-61.5 46.5t-46 69.5t-26.5 97t-9.5 129.5zM373 324q11 -42 41 -56t94 -14q77 0 113.5 22t54.5 95q24 117 39 278zM381 625l344 321q-9 50 -39 66t-96 16q-77 0 -113.5 -22t-54.5 -95q-25 -113 -41 -286z" />
<glyph unicode="&#xd9;" horiz-adv-x="1083" d="M63 299q0 10 9 102l86 799q6 53 39 68.5t125 15.5q85 0 116 -12t31 -53q0 -12 -4 -48l-82 -772q-4 -39 -4 -65q0 -51 26.5 -68.5t104.5 -17.5q90 0 119 24.5t37 102.5l88 825q6 53 40 68.5t126 15.5q85 0 116 -12t31 -53q0 -12 -4 -48l-84 -780q-17 -153 -70 -239.5 t-154 -125t-272 -38.5q-227 0 -323.5 70t-96.5 241zM381 1671q0 45 37 58.5t135 13.5q94 0 124.5 -20t45.5 -87l29 -120q18 -79 18 -95q0 -28 -26.5 -38.5t-108.5 -10.5q-35 0 -55 0.5t-38 5t-25.5 7.5t-17.5 15.5t-14.5 21t-15.5 32.5l-53 115q-35 76 -35 102z" />
<glyph unicode="&#xda;" horiz-adv-x="1083" d="M63 299q0 10 9 102l86 799q6 53 39 68.5t125 15.5q85 0 116 -12t31 -53q0 -12 -4 -48l-82 -772q-4 -39 -4 -65q0 -51 26.5 -68.5t104.5 -17.5q90 0 119 24.5t37 102.5l88 825q6 53 40 68.5t126 15.5q85 0 116 -12t31 -53q0 -12 -4 -48l-84 -780q-17 -153 -70 -239.5 t-154 -125t-272 -38.5q-227 0 -323.5 70t-96.5 241zM453 1423q0 31 30 101l43 112q17 46 33 65.5t53.5 30.5t110.5 11q65 0 98 -6.5t42 -16.5t9 -30q0 -30 -51 -119l-67 -117q-18 -31 -33.5 -46t-52.5 -25.5t-99 -10.5q-68 0 -92 11.5t-24 39.5z" />
<glyph unicode="&#xdb;" horiz-adv-x="1083" d="M63 299q0 10 9 102l86 799q6 53 39 68.5t125 15.5q85 0 116 -12t31 -53q0 -12 -4 -48l-82 -772q-4 -39 -4 -65q0 -51 26.5 -68.5t104.5 -17.5q90 0 119 24.5t37 102.5l88 825q6 53 40 68.5t126 15.5q85 0 116 -12t31 -53q0 -12 -4 -48l-84 -780q-17 -153 -70 -239.5 t-154 -125t-272 -38.5q-227 0 -323.5 70t-96.5 241zM301 1413q0 22 59 103l121 165q27 36 54.5 49t80.5 13h72q47 0 71 -14t44 -48l94 -170q3 -5 11 -19.5t11.5 -21.5l9 -18t7.5 -19.5t2 -15.5q0 -28 -23 -36.5t-88 -8.5q-61 0 -83.5 12.5t-51.5 55.5l-55 88h-12l-72 -88 q-38 -46 -62.5 -57t-84.5 -11t-82.5 8.5t-22.5 32.5z" />
<glyph unicode="&#xdc;" horiz-adv-x="1083" d="M63 299q0 10 9 102l86 799q6 53 39 68.5t125 15.5q85 0 116 -12t31 -53q0 -12 -4 -48l-82 -772q-4 -39 -4 -65q0 -51 26.5 -68.5t104.5 -17.5q90 0 119 24.5t37 102.5l88 825q6 53 40 68.5t126 15.5q85 0 116 -12t31 -53q0 -12 -4 -48l-84 -780q-17 -153 -70 -239.5 t-154 -125t-272 -38.5q-227 0 -323.5 70t-96.5 241zM283 1456q0 97 34 131q20 20 50.5 25.5t103.5 5.5q80 0 104.5 -18t24.5 -70q0 -94 -35 -129q-20 -20 -51 -26.5t-102 -6.5q-80 0 -104.5 19t-24.5 69zM668 1456q0 97 32 131q19 19 50.5 25t103.5 6q81 0 106 -18.5 t25 -69.5q0 -94 -35 -129q-20 -20 -51 -26.5t-102 -6.5q-80 0 -104.5 19t-24.5 69z" />
<glyph unicode="&#xdd;" horiz-adv-x="991" d="M80 1200q0 33 11 49.5t45.5 25.5t103.5 9q101 0 133.5 -16.5t44.5 -73.5l96 -426h12l179 426q25 58 60.5 74t143.5 16q86 0 114 -12t28 -43t-43 -111l-365 -669l-39 -365q-6 -53 -39.5 -68.5t-124.5 -15.5q-84 0 -116.5 12.5t-32.5 53.5q0 11 4 47l37 336l-199 575 q-53 151 -53 176zM412 1423q0 31 30 101l43 112q17 46 33 65.5t53.5 30.5t110.5 11q65 0 98 -6.5t42 -16.5t9 -30q0 -30 -51 -119l-67 -117q-18 -31 -33.5 -46t-52.5 -25.5t-99 -10.5q-68 0 -92 11.5t-24 39.5z" />
<glyph unicode="&#xde;" horiz-adv-x="1038" d="M47 66q0 11 4 47l115 1087q6 53 39.5 68.5t124.5 15.5q85 0 117 -12t32 -53q0 -12 -4 -48l-12 -104q106 4 162 4q94 0 158 -14t113.5 -49.5t73 -101.5t23.5 -165q0 -96 -14 -171.5t-37.5 -129t-63 -91.5t-82 -60.5t-103 -35.5t-118.5 -17.5t-135 -4.5h-65l-15 -147 q-4 -53 -38 -68.5t-125 -15.5q-85 0 -117.5 12.5t-32.5 53.5zM401 481h101q96 0 132 56.5t36 162.5q0 68 -29.5 92.5t-95.5 24.5h-109z" />
<glyph unicode="&#xdf;" horiz-adv-x="1107" d="M8 -299q0 12 8 78l144 1358q7 64 23.5 106t45 71t78 44t113.5 21.5t162 6.5q214 0 295 -45t81 -176q0 -71 -19 -135.5t-42 -103t-42 -86.5t-19 -90q0 -52 55 -113l67 -74q52 -58 75.5 -106.5t23.5 -120.5q0 -118 -49.5 -200t-128.5 -119t-181 -37q-108 0 -200 30 q-24 8 -34.5 26t-10.5 58q0 84 17.5 126t45.5 42q9 0 51 -7t80 -7q50 0 72 17.5t22 56.5q0 22 -6.5 34.5t-29.5 40.5l-68 80q-80 92 -80 209q0 54 17.5 109t39 93t39 88t17.5 95q0 37 -24.5 51.5t-84.5 14.5q-56 0 -74.5 -14t-23.5 -56l-141 -1354q-6 -60 -39 -77t-127 -17 q-77 0 -112.5 17t-35.5 65z" />
<glyph unicode="&#xe0;" horiz-adv-x="1052" d="M57 229q0 146 37 398q18 120 49 200.5t77.5 125t101.5 62t131 17.5q194 0 249 -143l5 29q8 57 38 75.5t123 18.5q80 0 105.5 -12.5t25.5 -51.5q0 -24 -31.5 -321t-31.5 -355q0 -24 10 -105t10 -97q0 -37 -33 -53.5t-120 -16.5q-57 0 -83.5 8.5t-35.5 24.5t-16 55l-17 98 q-58 -110 -146 -158t-210 -48q-112 0 -175 56.5t-63 192.5zM369 1401q0 45 37 58.5t135 13.5q94 0 124.5 -20t45.5 -87l28 -121q19 -83 19 -94q0 -28 -26.5 -38.5t-108.5 -10.5q-35 0 -55 0.5t-38 5t-25.5 7.5t-17.5 15.5t-14.5 21t-15.5 32.5l-54 114q-34 74 -34 103z M377 326q0 -52 21 -70t65 -18q56 0 96.5 40t59 94t26.5 122l17 139q6 48 6 72q0 37 -25.5 53t-83.5 16q-72 0 -105 -35.5t-48 -134.5q-29 -216 -29 -278z" />
<glyph unicode="&#xe1;" horiz-adv-x="1052" d="M57 229q0 146 37 398q18 120 49 200.5t77.5 125t101.5 62t131 17.5q194 0 249 -143l5 29q8 57 38 75.5t123 18.5q80 0 105.5 -12.5t25.5 -51.5q0 -24 -31.5 -321t-31.5 -355q0 -24 10 -105t10 -97q0 -37 -33 -53.5t-120 -16.5q-57 0 -83.5 8.5t-35.5 24.5t-16 55l-17 98 q-58 -110 -146 -158t-210 -48q-112 0 -175 56.5t-63 192.5zM377 326q0 -52 21 -70t65 -18q56 0 96.5 40t59 94t26.5 122l17 139q6 48 6 72q0 37 -25.5 53t-83.5 16q-72 0 -105 -35.5t-48 -134.5q-29 -216 -29 -278zM422 1153q0 28 31 100l43 113q13 35 23 52t31 31.5 t53.5 19t88.5 4.5q64 0 97.5 -6.5t43 -17t9.5 -30.5q0 -30 -51 -119l-68 -116q-18 -31 -33.5 -46t-52 -25.5t-98.5 -10.5q-68 0 -92.5 12t-24.5 39z" />
<glyph unicode="&#xe2;" horiz-adv-x="1052" d="M57 229q0 146 37 398q18 120 49 200.5t77.5 125t101.5 62t131 17.5q194 0 249 -143l5 29q8 57 38 75.5t123 18.5q80 0 105.5 -12.5t25.5 -51.5q0 -24 -31.5 -321t-31.5 -355q0 -24 10 -105t10 -97q0 -37 -33 -53.5t-120 -16.5q-57 0 -83.5 8.5t-35.5 24.5t-16 55l-17 98 q-58 -110 -146 -158t-210 -48q-112 0 -175 56.5t-63 192.5zM291 1143q0 21 59 102l121 166q27 36 54.5 49t80.5 13h72q47 0 71 -14t44 -48l94 -170q3 -5 11 -19.5t11.5 -21.5l9 -18t7.5 -19.5t2 -15.5q0 -28 -23 -36.5t-88 -8.5q-61 0 -83.5 12t-51.5 55l-55 88h-13l-71 -88 q-38 -45 -62.5 -56t-85.5 -11q-60 0 -82 8.5t-22 32.5zM377 326q0 -52 21 -70t65 -18q56 0 96.5 40t59 94t26.5 122l17 139q6 48 6 72q0 37 -25.5 53t-83.5 16q-72 0 -105 -35.5t-48 -134.5q-29 -216 -29 -278z" />
<glyph unicode="&#xe3;" horiz-adv-x="1052" d="M57 229q0 146 37 398q18 120 49 200.5t77.5 125t101.5 62t131 17.5q194 0 249 -143l5 29q8 57 38 75.5t123 18.5q80 0 105.5 -12.5t25.5 -51.5q0 -24 -31.5 -321t-31.5 -355q0 -24 10 -105t10 -97q0 -37 -33 -53.5t-120 -16.5q-57 0 -83.5 8.5t-35.5 24.5t-16 55l-17 98 q-58 -110 -146 -158t-210 -48q-112 0 -175 56.5t-63 192.5zM319 1186q0 82 16 126t52 66q72 35 152 35q58 0 134.5 -17.5t114.5 -17.5q44 0 91.5 12.5t56.5 12.5q16 0 23.5 -9.5t7.5 -37.5q0 -82 -16 -126t-52 -65q-24 -14 -66 -25.5t-85 -11.5q-58 0 -135 18.5t-115 18.5 q-45 0 -92.5 -12t-55.5 -12q-17 0 -24 9t-7 36zM377 326q0 -52 21 -70t65 -18q56 0 96.5 40t59 94t26.5 122l17 139q6 48 6 72q0 37 -25.5 53t-83.5 16q-72 0 -105 -35.5t-48 -134.5q-29 -216 -29 -278z" />
<glyph unicode="&#xe4;" horiz-adv-x="1052" d="M57 229q0 146 37 398q18 120 49 200.5t77.5 125t101.5 62t131 17.5q194 0 249 -143l5 29q8 57 38 75.5t123 18.5q80 0 105.5 -12.5t25.5 -51.5q0 -24 -31.5 -321t-31.5 -355q0 -24 10 -105t10 -97q0 -37 -33 -53.5t-120 -16.5q-57 0 -83.5 8.5t-35.5 24.5t-16 55l-17 98 q-58 -110 -146 -158t-210 -48q-112 0 -175 56.5t-63 192.5zM287 1186q0 96 35 131q20 20 50 25.5t103 5.5q80 0 104.5 -18t24.5 -70q0 -95 -35 -130q-20 -20 -50.5 -26t-102.5 -6q-80 0 -104.5 19t-24.5 69zM377 326q0 -52 21 -70t65 -18q56 0 96.5 40t59 94t26.5 122 l17 139q6 48 6 72q0 37 -25.5 53t-83.5 16q-72 0 -105 -35.5t-48 -134.5q-29 -216 -29 -278zM672 1186q0 96 33 131q20 20 50.5 25.5t102.5 5.5q81 0 106 -18.5t25 -69.5q0 -95 -35 -130q-20 -20 -50.5 -26t-102.5 -6q-80 0 -104.5 19t-24.5 69z" />
<glyph unicode="&#xe5;" horiz-adv-x="1052" d="M57 229q0 146 37 398q18 120 49 200.5t77.5 125t101.5 62t131 17.5q194 0 249 -143l5 29q8 57 38 75.5t123 18.5q80 0 105.5 -12.5t25.5 -51.5q0 -24 -31.5 -321t-31.5 -355q0 -24 10 -105t10 -97q0 -37 -33 -53.5t-120 -16.5q-57 0 -83.5 8.5t-35.5 24.5t-16 55l-17 98 q-58 -110 -146 -158t-210 -48q-112 0 -175 56.5t-63 192.5zM334 1313q0 147 80.5 215.5t238.5 68.5q136 0 202.5 -47t66.5 -159q0 -146 -80.5 -214.5t-239.5 -68.5q-133 0 -200.5 49t-67.5 156zM377 326q0 -52 21 -70t65 -18q56 0 96.5 40t59 94t26.5 122l17 139q6 48 6 72 q0 37 -25.5 53t-83.5 16q-72 0 -105 -35.5t-48 -134.5q-29 -216 -29 -278zM545 1337q0 -25 15 -33t61 -8q57 0 73.5 15t16.5 59q0 23 -16 32t-60 9q-56 0 -73 -15.5t-17 -58.5z" />
<glyph unicode="&#xe6;" horiz-adv-x="1488" d="M57 229q0 146 37 398q18 120 49 200.5t77.5 125t101.5 62t131 17.5q68 0 118 -16t78.5 -44.5t43.5 -57.5t24 -66q31 74 71.5 111.5t114.5 55t203 17.5q100 0 167.5 -17t104 -50.5t51.5 -76t15 -102.5q0 -276 -139 -352q-122 -64 -398 -67v-27q0 -66 22 -84t93 -18 q78 0 183 23.5t112 23.5q53 0 53 -84q0 -56 -11 -90.5t-24 -47t-37 -24.5q-46 -24 -132.5 -40.5t-182.5 -16.5q-126 0 -196.5 15t-106.5 51t-49 104q-110 -172 -336 -172q-112 0 -175 56.5t-63 192.5zM377 326q0 -52 21 -70t65 -18q56 0 96.5 40t59 94t26.5 122 q23 199 23 211q0 37 -25.5 53t-83.5 16q-72 0 -105 -35.5t-48 -134.5q-29 -216 -29 -278zM922 549q119 5 178 29q59 26 59 137q0 28 -17 44.5t-65 16.5q-58 0 -87 -22.5t-44 -81.5q-10 -35 -24 -123z" />
<glyph unicode="&#xe7;" horiz-adv-x="841" d="M57 303q0 145 21 286.5t53 227.5q25 65 65 108.5t94 66t110 31.5t128 9q141 0 236 -31q29 -8 41 -24.5t12 -58.5q0 -47 -6 -80t-13.5 -49.5t-19 -25t-18 -10t-15.5 -1.5q-12 0 -87.5 9t-116.5 9q-64 0 -95 -21t-45 -71q-18 -68 -29.5 -162t-11.5 -166q0 -61 23 -84.5 t90 -23.5q54 0 148 18.5t98 18.5q49 0 49 -70q0 -85 -17 -125.5t-53 -56.5q-61 -30 -180 -39q-2 -16 -2 -35q0 -18 23 -31q68 -35 94 -69t26 -93q0 -251 -282 -254q-83 0 -144 15q-30 7 -41.5 20t-11.5 51q0 21 3 43t10 47t21.5 40.5t35.5 15.5q11 0 49 -5t63 -5 q21 0 30.5 4t10.5 16q0 18 -47 39q-37 18 -51 36.5t-14 55.5q0 17 6 66l4 43q-125 16 -184.5 87t-59.5 228z" />
<glyph unicode="&#xe8;" horiz-adv-x="940" d="M57 303q0 145 21 286.5t53 227.5q48 125 150 170t278 45q99 0 166.5 -17t104.5 -50.5t52 -76t15 -102.5q0 -276 -141 -352q-119 -64 -396 -67v-27q0 -58 25 -80t88 -22q80 0 185.5 23.5t111.5 23.5q51 0 51 -84q0 -56 -10 -90.5t-23 -47t-36 -24.5q-46 -24 -133 -40.5 t-185 -16.5q-101 0 -168.5 14t-116 50t-70.5 99t-22 158zM334 1401q0 45 37 58.5t135 13.5q94 0 124.5 -20t45.5 -87l29 -121q18 -79 18 -94q0 -28 -26.5 -38.5t-108.5 -10.5q-35 0 -55 0.5t-38 5t-25.5 7.5t-17.5 15.5t-14.5 21t-15.5 32.5l-53 114q-35 76 -35 103z M375 549q119 5 178 29q57 27 57 137q0 28 -16 44.5t-64 16.5q-58 0 -87 -22.5t-44 -81.5q-10 -35 -24 -123z" />
<glyph unicode="&#xe9;" horiz-adv-x="940" d="M57 303q0 145 21 286.5t53 227.5q48 125 150 170t278 45q99 0 166.5 -17t104.5 -50.5t52 -76t15 -102.5q0 -276 -141 -352q-119 -64 -396 -67v-27q0 -58 25 -80t88 -22q80 0 185.5 23.5t111.5 23.5q51 0 51 -84q0 -56 -10 -90.5t-23 -47t-36 -24.5q-46 -24 -133 -40.5 t-185 -16.5q-101 0 -168.5 14t-116 50t-70.5 99t-22 158zM375 549q119 5 178 29q57 27 57 137q0 28 -16 44.5t-64 16.5q-58 0 -87 -22.5t-44 -81.5q-10 -35 -24 -123zM385 1153q0 28 31 100l43 113q13 35 23 52t31 31.5t53.5 19t88.5 4.5q64 0 97.5 -6.5t43 -17t9.5 -30.5 q0 -30 -51 -119l-68 -116q-18 -31 -33.5 -46t-52 -25.5t-98.5 -10.5q-68 0 -92.5 12t-24.5 39z" />
<glyph unicode="&#xea;" horiz-adv-x="940" d="M57 303q0 145 21 286.5t53 227.5q48 125 150 170t278 45q99 0 166.5 -17t104.5 -50.5t52 -76t15 -102.5q0 -276 -141 -352q-119 -64 -396 -67v-27q0 -58 25 -80t88 -22q80 0 185.5 23.5t111.5 23.5q51 0 51 -84q0 -56 -10 -90.5t-23 -47t-36 -24.5q-46 -24 -133 -40.5 t-185 -16.5q-101 0 -168.5 14t-116 50t-70.5 99t-22 158zM238 1143q0 21 59 102l121 166q27 36 54.5 49t80.5 13h72q47 0 70.5 -14t43.5 -48l95 -170q40 -73 40 -94q0 -28 -23 -36.5t-87 -8.5q-61 0 -83.5 12t-51.5 55l-56 88h-12l-72 -88q-38 -45 -62 -56t-85 -11 q-60 0 -82 8.5t-22 32.5zM375 549q119 5 178 29q57 27 57 137q0 28 -16 44.5t-64 16.5q-58 0 -87 -22.5t-44 -81.5q-10 -35 -24 -123z" />
<glyph unicode="&#xeb;" horiz-adv-x="940" d="M57 303q0 145 21 286.5t53 227.5q48 125 150 170t278 45q99 0 166.5 -17t104.5 -50.5t52 -76t15 -102.5q0 -276 -141 -352q-119 -64 -396 -67v-27q0 -58 25 -80t88 -22q80 0 185.5 23.5t111.5 23.5q51 0 51 -84q0 -56 -10 -90.5t-23 -47t-36 -24.5q-46 -24 -133 -40.5 t-185 -16.5q-101 0 -168.5 14t-116 50t-70.5 99t-22 158zM209 1186q0 96 35 131q20 20 50 25.5t103 5.5q80 0 104.5 -18t24.5 -70q0 -96 -34 -130q-20 -20 -51 -26t-103 -6q-80 0 -104.5 19t-24.5 69zM375 549q119 5 178 29q57 27 57 137q0 28 -16 44.5t-64 16.5 q-58 0 -87 -22.5t-44 -81.5q-10 -35 -24 -123zM594 1186q0 96 33 131q20 20 50.5 25.5t102.5 5.5q81 0 106 -18.5t25 -69.5q0 -96 -34 -130q-20 -20 -51 -26t-103 -6q-80 0 -104.5 19t-24.5 69z" />
<glyph unicode="&#xec;" horiz-adv-x="499" d="M53 1401q0 45 37 58.5t135 13.5q94 0 124.5 -20t45.5 -87l29 -121q18 -79 18 -94q0 -28 -26.5 -38.5t-108.5 -10.5q-35 0 -55 0.5t-38 5t-25.5 7.5t-17.5 15.5t-14.5 21t-15.5 32.5l-53 114q-35 76 -35 103zM63 197q0 27 23 252l51 479q6 55 39.5 69.5t130.5 14.5 q83 0 112.5 -12t29.5 -52q0 -25 -37 -355.5t-37 -359.5q0 -36 6 -86.5t6 -58.5q0 -17 -3 -28.5t-15.5 -27t-45 -24t-83.5 -8.5q-75 0 -107 11.5t-47 45.5q-10 23 -16.5 67.5t-6.5 72.5z" />
<glyph unicode="&#xed;" horiz-adv-x="499" d="M63 197q0 27 23 252l51 479q6 55 39.5 69.5t130.5 14.5q83 0 112.5 -12t29.5 -52q0 -25 -37 -355.5t-37 -359.5q0 -36 6 -86.5t6 -58.5q0 -17 -3 -28.5t-15.5 -27t-45 -24t-83.5 -8.5q-75 0 -107 11.5t-47 45.5q-10 23 -16.5 67.5t-6.5 72.5zM166 1153q0 28 31 100 l43 113q13 35 23 52t31 31.5t53.5 19t88.5 4.5q64 0 97.5 -6.5t43 -17t9.5 -30.5q0 -30 -51 -119l-68 -116q-18 -31 -33.5 -46t-52 -25.5t-98.5 -10.5q-68 0 -92.5 12t-24.5 39z" />
<glyph unicode="&#xee;" horiz-adv-x="499" d="M-6 1143q0 21 59 102l121 166q27 36 54.5 49t80.5 13h72q47 0 71 -14t44 -48l94 -170q3 -5 11 -19.5t11.5 -21.5l9 -18t7.5 -19.5t2 -15.5q0 -28 -23 -36.5t-88 -8.5q-61 0 -83.5 12t-51.5 55l-55 88h-13l-71 -88q-38 -45 -62.5 -56t-85.5 -11q-60 0 -82 8.5t-22 32.5z M63 197q0 27 23 252l51 479q6 55 39.5 69.5t130.5 14.5q83 0 112.5 -12t29.5 -52q0 -25 -37 -355.5t-37 -359.5q0 -36 6 -86.5t6 -58.5q0 -17 -3 -28.5t-15.5 -27t-45 -24t-83.5 -8.5q-75 0 -107 11.5t-47 45.5q-10 23 -16.5 67.5t-6.5 72.5z" />
<glyph unicode="&#xef;" horiz-adv-x="499" d="M-23 1186q0 96 35 131q20 20 50.5 25.5t103.5 5.5q80 0 104.5 -18t24.5 -70q0 -95 -35 -130q-20 -20 -51 -26t-103 -6q-80 0 -104.5 19t-24.5 69zM63 197q0 27 23 252l51 479q6 55 39.5 69.5t130.5 14.5q83 0 112.5 -12t29.5 -52q0 -25 -37 -355.5t-37 -359.5 q0 -36 6 -86.5t6 -58.5q0 -17 -3 -28.5t-15.5 -27t-45 -24t-83.5 -8.5q-75 0 -107 11.5t-47 45.5q-10 23 -16.5 67.5t-6.5 72.5zM362 1186q0 96 33 131q19 19 50.5 25t103.5 6q81 0 106 -18.5t25 -69.5q0 -95 -35 -130q-20 -20 -50.5 -26t-102.5 -6q-80 0 -105 19t-25 69z " />
<glyph unicode="&#xf0;" horiz-adv-x="1015" d="M59 330q0 128 19.5 269t44.5 222q25 82 70 130.5t101 65.5t136 17q136 0 197 -82q-4 65 -21 154l-74 -19q-27 -8 -43 -8q-21 0 -36 44.5t-15 74.5q0 18 8.5 26.5t32.5 14.5l82 23q-18 50 -18 81q0 14 3 23.5t14 22t39 19.5t71 7q47 0 72 -6.5t35 -16.5t22 -32l14 -31 l70 19q31 8 43 8q22 0 36.5 -44t14.5 -75q0 -20 -8.5 -28t-30.5 -13l-68 -18q84 -263 84 -519q0 -117 -18 -243t-51 -209q-51 -127 -154.5 -177t-294.5 -50q-106 0 -173.5 14.5t-115.5 53.5t-68 107t-20 175zM377 375q0 -87 18 -112t78 -25q61 0 89 21t42 71 q16 61 27.5 159.5t11.5 163.5q0 77 -20.5 106t-83.5 29q-61 0 -88 -22t-39 -76q-16 -59 -25.5 -155.5t-9.5 -159.5z" />
<glyph unicode="&#xf1;" horiz-adv-x="1058" d="M53 63q0 47 33 344t33 349q0 16 -6.5 88t-6.5 82q0 46 33 66t119 20q90 0 117 -13.5t31 -62.5l8 -86q92 182 334 182q126 0 185.5 -47.5t59.5 -142.5q0 -42 -29.5 -302t-29.5 -307q0 -36 6 -86.5t6 -58.5q0 -14 -1 -22.5t-8.5 -22.5t-22 -22t-44 -14.5t-71.5 -6.5 q-75 0 -107 11.5t-47 45.5q-10 23 -16 67t-6 73q0 55 23.5 268.5t23.5 236.5q0 33 -15 48.5t-57 15.5q-87 0 -129.5 -51.5t-52.5 -145.5l-51 -485q-6 -54 -40 -69t-130 -15q-82 0 -112 12t-30 51zM270 1186q0 82 16 126t52 66q73 35 151 35q58 0 135 -17.5t115 -17.5 q44 0 91.5 12.5t56.5 12.5q16 0 23.5 -9.5t7.5 -37.5q0 -82 -16 -126t-52 -65q-24 -14 -66.5 -25.5t-85.5 -11.5q-58 0 -134.5 18.5t-114.5 18.5q-45 0 -92.5 -12t-55.5 -12q-17 0 -24 9t-7 36z" />
<glyph unicode="&#xf2;" horiz-adv-x="991" d="M57 303q0 120 20 257t46 216q32 100 91 157.5t136 78t193 20.5q106 0 176 -14.5t120 -50.5t72.5 -98.5t22.5 -157.5q0 -120 -20 -257t-46 -216q-47 -147 -145.5 -201.5t-273.5 -54.5q-106 0 -176 14.5t-120.5 50.5t-73 98.5t-22.5 157.5zM317 1401q0 45 37 58.5t135 13.5 q94 0 124.5 -20t45.5 -87l29 -121q19 -83 19 -94q0 -27 -27 -38t-109 -11q-67 0 -94.5 6.5t-39 19.5t-31.5 56l-54 114q-35 76 -35 103zM365 356q0 -68 20 -90t80 -22q69 0 94 28.5t39 106.5q29 166 29 278q0 68 -20.5 90.5t-80.5 22.5q-69 0 -94 -28.5t-39 -106.5 q-28 -160 -28 -279z" />
<glyph unicode="&#xf3;" horiz-adv-x="991" d="M57 303q0 120 20 257t46 216q32 100 91 157.5t136 78t193 20.5q106 0 176 -14.5t120 -50.5t72.5 -98.5t22.5 -157.5q0 -120 -20 -257t-46 -216q-47 -147 -145.5 -201.5t-273.5 -54.5q-106 0 -176 14.5t-120.5 50.5t-73 98.5t-22.5 157.5zM365 356q0 -68 20 -90t80 -22 q69 0 94 28.5t39 106.5q29 166 29 278q0 68 -20.5 90.5t-80.5 22.5q-69 0 -94 -28.5t-39 -106.5q-28 -160 -28 -279zM403 1153q0 28 31 100l43 113q17 46 33 65.5t53.5 30.5t110.5 11q64 0 97.5 -6.5t42.5 -17t9 -30.5q0 -30 -51 -119l-67 -116q-18 -31 -33.5 -46 t-52.5 -25.5t-99 -10.5q-68 0 -92.5 12t-24.5 39z" />
<glyph unicode="&#xf4;" horiz-adv-x="991" d="M57 303q0 120 20 257t46 216q32 100 91 157.5t136 78t193 20.5q106 0 176 -14.5t120 -50.5t72.5 -98.5t22.5 -157.5q0 -120 -20 -257t-46 -216q-47 -147 -145.5 -201.5t-273.5 -54.5q-106 0 -176 14.5t-120.5 50.5t-73 98.5t-22.5 157.5zM246 1143q0 21 59 102l121 166 q27 36 54.5 49t80.5 13h72q47 0 71 -14t44 -48l94 -170q3 -5 11 -19.5t11.5 -21.5l9 -18t7.5 -19.5t2 -15.5q0 -28 -23 -36.5t-88 -8.5q-61 0 -83.5 12t-51.5 55l-55 88h-13l-71 -88q-38 -45 -62.5 -56t-85.5 -11q-60 0 -82 8.5t-22 32.5zM365 356q0 -68 20 -90t80 -22 q69 0 94 28.5t39 106.5q29 166 29 278q0 68 -20.5 90.5t-80.5 22.5q-69 0 -94 -28.5t-39 -106.5q-28 -160 -28 -279z" />
<glyph unicode="&#xf5;" horiz-adv-x="991" d="M57 303q0 120 20 257t46 216q32 100 91 157.5t136 78t193 20.5q106 0 176 -14.5t120 -50.5t72.5 -98.5t22.5 -157.5q0 -120 -20 -257t-46 -216q-47 -147 -145.5 -201.5t-273.5 -54.5q-106 0 -176 14.5t-120.5 50.5t-73 98.5t-22.5 157.5zM254 1186q0 82 16 126t52 66 q73 35 151 35q58 0 135 -17.5t115 -17.5q44 0 91 12.5t56 12.5q16 0 23.5 -9.5t7.5 -37.5q0 -82 -15.5 -126.5t-51.5 -64.5q-24 -14 -66.5 -25.5t-85.5 -11.5q-58 0 -135 18.5t-115 18.5q-45 0 -92 -12t-55 -12q-17 0 -24 9t-7 36zM365 356q0 -68 20 -90t80 -22 q69 0 94 28.5t39 106.5q29 166 29 278q0 68 -20.5 90.5t-80.5 22.5q-69 0 -94 -28.5t-39 -106.5q-28 -160 -28 -279z" />
<glyph unicode="&#xf6;" horiz-adv-x="991" d="M57 303q0 120 20 257t46 216q32 100 91 157.5t136 78t193 20.5q106 0 176 -14.5t120 -50.5t72.5 -98.5t22.5 -157.5q0 -120 -20 -257t-46 -216q-47 -147 -145.5 -201.5t-273.5 -54.5q-106 0 -176 14.5t-120.5 50.5t-73 98.5t-22.5 157.5zM225 1186q0 96 35 131 q20 20 50.5 25.5t103.5 5.5q80 0 104.5 -18t24.5 -70q0 -95 -35 -130q-20 -20 -51 -26t-103 -6q-80 0 -104.5 19t-24.5 69zM365 356q0 -68 20 -90t80 -22q69 0 94 28.5t39 106.5q29 166 29 278q0 68 -20.5 90.5t-80.5 22.5q-69 0 -94 -28.5t-39 -106.5q-28 -160 -28 -279z M610 1186q0 96 33 131q19 19 50.5 25t103.5 6q81 0 106 -18.5t25 -69.5q0 -95 -35 -130q-20 -20 -51 -26t-103 -6q-80 0 -104.5 19t-24.5 69z" />
<glyph unicode="&#xf7;" d="M135 494q0 86 21 129q18 43 73 43h512q35 0 48.5 -13t13.5 -49q0 -80 -19 -129q-19 -43 -73 -43h-514q-33 0 -47.5 13t-14.5 49zM315 160q0 12 9 92q6 54 29.5 70t99.5 16q66 0 89 -12.5t23 -49.5q0 -19 -8 -92q-6 -54 -29.5 -69t-101.5 -15q-65 0 -88 12t-23 48z M383 803q0 19 8 92q6 54 29 69t100 15q67 0 89 -11.5t22 -47.5q0 -51 -8 -109q-6 -42 -30 -56t-99 -14q-66 0 -88.5 12t-22.5 50z" />
<glyph unicode="&#xf8;" horiz-adv-x="991" d="M57 303q0 120 20 257t46 216q32 100 91 157.5t136 78t193 20.5q106 0 176 -14.5t120 -50.5t72.5 -98.5t22.5 -157.5q0 -120 -20 -257t-46 -216q-47 -147 -145.5 -201.5t-273.5 -54.5q-106 0 -176 14.5t-120.5 50.5t-73 98.5t-22.5 157.5zM365 322q4 -46 25.5 -62 t74.5 -16q69 0 94 28.5t39 106.5q5 30 18 133zM375 510l250 192q-6 39 -28 53.5t-71 14.5q-70 0 -96.5 -30t-38.5 -115z" />
<glyph unicode="&#xf9;" horiz-adv-x="1046" d="M63 162q0 43 31 291q33 264 33 311q0 27 -6 88t-6 74q0 47 31.5 66.5t119.5 19.5q83 0 109.5 -15t38.5 -67q18 -81 18 -154q0 -37 -24.5 -241.5t-24.5 -233.5q0 -37 19 -50t61 -13q84 0 122.5 64t51.5 190l47 436q6 55 39.5 69.5t130.5 14.5q83 0 112 -12t29 -52 q0 -24 -31.5 -322.5t-31.5 -353.5q0 -24 9 -105t9 -97q0 -37 -32 -53.5t-119 -16.5q-58 0 -85 8.5t-36 24.5t-16 55l-17 92q-99 -200 -344 -200q-50 0 -90.5 9t-75 29t-53.5 56.5t-19 87.5zM324 1401q0 45 37 58.5t135 13.5q94 0 124.5 -20t45.5 -87l28 -121q19 -83 19 -94 q0 -28 -26.5 -38.5t-108.5 -10.5q-35 0 -55 0.5t-38 5t-25.5 7.5t-17.5 15.5t-14.5 21t-15.5 32.5l-54 114q-34 74 -34 103z" />
<glyph unicode="&#xfa;" horiz-adv-x="1046" d="M63 162q0 43 31 291q33 264 33 311q0 27 -6 88t-6 74q0 47 31.5 66.5t119.5 19.5q83 0 109.5 -15t38.5 -67q18 -81 18 -154q0 -37 -24.5 -241.5t-24.5 -233.5q0 -37 19 -50t61 -13q84 0 122.5 64t51.5 190l47 436q6 55 39.5 69.5t130.5 14.5q83 0 112 -12t29 -52 q0 -24 -31.5 -322.5t-31.5 -353.5q0 -24 9 -105t9 -97q0 -37 -32 -53.5t-119 -16.5q-58 0 -85 8.5t-36 24.5t-16 55l-17 92q-99 -200 -344 -200q-50 0 -90.5 9t-75 29t-53.5 56.5t-19 87.5zM416 1153q0 30 30 100l43 113q17 46 33 65.5t53.5 30.5t110.5 11q64 0 97.5 -6.5 t43 -17t9.5 -30.5q0 -28 -52 -119l-67 -116q-18 -31 -33.5 -46t-52.5 -25.5t-99 -10.5q-68 0 -92 11.5t-24 39.5z" />
<glyph unicode="&#xfb;" horiz-adv-x="1046" d="M63 162q0 43 31 291q33 264 33 311q0 27 -6 88t-6 74q0 47 31.5 66.5t119.5 19.5q83 0 109.5 -15t38.5 -67q18 -81 18 -154q0 -37 -24.5 -241.5t-24.5 -233.5q0 -37 19 -50t61 -13q84 0 122.5 64t51.5 190l47 436q6 55 39.5 69.5t130.5 14.5q83 0 112 -12t29 -52 q0 -24 -31.5 -322.5t-31.5 -353.5q0 -24 9 -105t9 -97q0 -37 -32 -53.5t-119 -16.5q-58 0 -85 8.5t-36 24.5t-16 55l-17 92q-99 -200 -344 -200q-50 0 -90.5 9t-75 29t-53.5 56.5t-19 87.5zM260 1143q0 21 59 102l121 166q27 36 54.5 49t80.5 13h72q47 0 71 -14t44 -48 l94 -170q3 -5 11 -19.5t11.5 -21.5l9 -18t7.5 -19.5t2 -15.5q0 -28 -23 -36.5t-88 -8.5q-61 0 -83.5 12t-51.5 55l-55 88h-12l-72 -88q-38 -45 -62 -56t-85 -11q-60 0 -82.5 8.5t-22.5 32.5z" />
<glyph unicode="&#xfc;" horiz-adv-x="1046" d="M63 162q0 43 31 291q33 264 33 311q0 27 -6 88t-6 74q0 47 31.5 66.5t119.5 19.5q83 0 109.5 -15t38.5 -67q18 -81 18 -154q0 -37 -24.5 -241.5t-24.5 -233.5q0 -37 19 -50t61 -13q84 0 122.5 64t51.5 190l47 436q6 55 39.5 69.5t130.5 14.5q83 0 112 -12t29 -52 q0 -24 -31.5 -322.5t-31.5 -353.5q0 -24 9 -105t9 -97q0 -37 -32 -53.5t-119 -16.5q-58 0 -85 8.5t-36 24.5t-16 55l-17 92q-99 -200 -344 -200q-50 0 -90.5 9t-75 29t-53.5 56.5t-19 87.5zM219 1186q0 96 35 131q20 20 50.5 25.5t103.5 5.5q80 0 104.5 -18t24.5 -70 q0 -95 -35 -130q-20 -20 -51 -26t-103 -6q-80 0 -104.5 19t-24.5 69zM604 1186q0 96 33 131q19 19 50.5 25t103.5 6q81 0 106 -18.5t25 -69.5q0 -95 -35 -130q-20 -20 -51 -26t-103 -6q-80 0 -104.5 19t-24.5 69z" />
<glyph unicode="&#xfd;" horiz-adv-x="970" d="M-29 -297q0 61 17.5 114.5t56.5 53.5q9 0 71.5 -6t94.5 -6q89 0 124 26t56 97l4 18q-131 0 -176.5 26.5t-54.5 108.5l-78 651q-12 102 -12 129q0 62 39 80q33 17 135 17q96 0 125 -14.5t33 -65.5q1 -17 7.5 -148t15 -286.5t15.5 -243.5h23q45 166 111.5 418t68.5 260 q13 51 47 65.5t135 14.5q86 0 116 -14t30 -52q0 -27 -49 -209q-128 -468 -201.5 -680.5t-134.5 -302.5q-57 -84 -149 -123t-232 -39q-42 0 -99.5 8t-91.5 19q-47 16 -47 84zM360 1153q0 28 31 100l43 113q17 46 33 65.5t53.5 30.5t110.5 11q64 0 97.5 -6.5t42.5 -17t9 -30.5 q0 -30 -51 -119l-67 -116q-18 -31 -33.5 -46t-52.5 -25.5t-99 -10.5q-68 0 -92.5 12t-24.5 39z" />
<glyph unicode="&#xfe;" horiz-adv-x="1044" d="M16 -299q0 4 9 78l153 1485q6 54 38.5 69t125.5 15q87 0 117 -12t30 -54q0 -4 -1 -18t-1 -19l-34 -332q105 119 301 119q116 0 179.5 -62t63.5 -212q0 -139 -36 -357q-16 -101 -45 -177t-64.5 -122t-82.5 -74t-93 -38t-103 -10q-135 0 -206 86l-37 -353q-6 -60 -39 -77 t-127 -17q-77 0 -112.5 17t-35.5 65zM383 291q0 -34 22 -48t76 -14q82 0 116.5 38.5t51.5 150.5q27 184 27 266q0 55 -21.5 72.5t-68.5 17.5q-46 0 -80.5 -22t-55 -61t-32 -82.5t-15.5 -94.5q-6 -65 -11 -121t-7 -74.5t-2 -27.5z" />
<glyph unicode="&#xff;" horiz-adv-x="970" d="M-29 -297q0 61 17.5 114.5t56.5 53.5q9 0 71.5 -6t94.5 -6q89 0 124 26t56 97l4 18q-131 0 -176.5 26.5t-54.5 108.5l-78 651q-12 102 -12 129q0 62 39 80q33 17 135 17q96 0 125 -14.5t33 -65.5q1 -17 7.5 -148t15 -286.5t15.5 -243.5h23q45 166 111.5 418t68.5 260 q13 51 47 65.5t135 14.5q86 0 116 -14t30 -52q0 -27 -49 -209q-128 -468 -201.5 -680.5t-134.5 -302.5q-57 -84 -149 -123t-232 -39q-42 0 -99.5 8t-91.5 19q-47 16 -47 84zM190 1186q0 96 35 131q20 20 50.5 25.5t103.5 5.5q80 0 104.5 -18t24.5 -70q0 -95 -35 -130 q-20 -20 -51 -26t-103 -6q-80 0 -104.5 19t-24.5 69zM575 1186q0 96 33 131q19 19 50.5 25t103.5 6q81 0 106 -18.5t25 -69.5q0 -95 -35 -130q-20 -20 -50.5 -26t-102.5 -6q-80 0 -105 19t-25 69z" />
<glyph unicode="&#x152;" horiz-adv-x="1503" d="M51 375q0 72 29 342q10 97 24 173t35 135t44 101.5t57.5 72.5t69.5 48.5t86 29t101.5 14t120.5 3.5q119 0 193 -14q24 4 47 4h596q33 0 47.5 -17t14.5 -61q0 -113 -22 -153.5t-69 -40.5h-395l-24 -209h260q36 0 49.5 -14t13.5 -54q0 -120 -20 -160t-72 -40h-258l-27 -263 h416q35 0 49.5 -16.5t14.5 -62.5q0 -111 -23.5 -152t-69.5 -41h-616q-31 0 -43 2q-80 -14 -201 -14q-64 0 -111 3.5t-94 13.5t-79.5 27.5t-61.5 46.5t-46 69.5t-26.5 97t-9.5 129.5zM367 403q0 -49 7 -78.5t25 -45t42.5 -20.5t66.5 -5q37 0 60 3.5t45 16.5t35 34t25 59 t20 88.5t16 126.5q24 234 24 299q0 93 -29.5 120t-113.5 27q-45 0 -72 -6.5t-50 -24t-36.5 -56t-23.5 -94.5t-19 -147q-22 -236 -22 -297z" />
<glyph unicode="&#x153;" horiz-adv-x="1449" d="M57 303q0 129 19.5 258t46.5 211q47 147 146.5 203.5t273.5 56.5q97 0 158.5 -21t93.5 -71q42 53 106.5 72.5t165.5 19.5q100 0 167.5 -17t104.5 -50.5t52.5 -76t15.5 -102.5q0 -275 -141 -352q-122 -64 -396 -67v-27q0 -58 24 -80t89 -22q79 0 184 23.5t111 23.5 q53 0 53 -84q0 -81 -17 -112.5t-54 -49.5q-44 -24 -131.5 -40.5t-184.5 -16.5q-98 0 -155 19.5t-87 68.5q-40 -48 -100.5 -68t-152.5 -20q-106 0 -176 14.5t-120.5 50.5t-73 98.5t-22.5 157.5zM365 356q0 -68 20 -90t80 -22q67 0 93 28.5t40 106.5q29 166 29 278 q0 68 -20.5 90.5t-80.5 22.5q-69 0 -94 -28.5t-39 -106.5q-28 -160 -28 -279zM885 549q117 5 176 29q59 26 59 137q0 28 -17 44.5t-65 16.5q-57 0 -85.5 -22t-45.5 -82q-12 -45 -22 -123z" />
<glyph unicode="&#x178;" horiz-adv-x="991" d="M80 1200q0 33 11 49.5t45.5 25.5t103.5 9q101 0 133.5 -16.5t44.5 -73.5l96 -426h12l179 426q25 58 60.5 74t143.5 16q86 0 114 -12t28 -43t-43 -111l-365 -669l-39 -365q-6 -53 -39.5 -68.5t-124.5 -15.5q-84 0 -116.5 12.5t-32.5 53.5q0 11 4 47l37 336l-199 575 q-53 151 -53 176zM238 1456q0 97 34 131q20 20 50.5 25.5t103.5 5.5q80 0 104.5 -18t24.5 -70q0 -94 -35 -129q-20 -20 -51 -26.5t-102 -6.5q-80 0 -104.5 19t-24.5 69zM623 1456q0 97 32 131q19 19 50.5 25t103.5 6q81 0 106 -18.5t25 -69.5q0 -94 -35 -129 q-20 -20 -51 -26.5t-102 -6.5q-80 0 -104.5 19t-24.5 69z" />
<glyph unicode="&#x2c6;" horiz-adv-x="702" d="M104 1143q0 20 60 102l121 166q27 36 54.5 49t80.5 13h72q47 0 70.5 -14t43.5 -48l94 -170q3 -5 11 -19.5t11.5 -21.5l9 -18t7.5 -19.5t2 -15.5q0 -28 -23 -36.5t-87 -8.5q-61 0 -83.5 12t-51.5 55l-56 88h-12l-72 -88q-38 -45 -62 -56t-85 -11q-60 0 -82.5 8.5 t-22.5 32.5z" />
<glyph unicode="&#x2dc;" horiz-adv-x="778" d="M150 1186q0 82 15.5 126t51.5 66q72 35 152 35q58 0 134.5 -17.5t114.5 -17.5q44 0 91.5 12.5t56.5 12.5q16 0 23.5 -9.5t7.5 -37.5q0 -82 -16 -126t-52 -65q-24 -14 -66 -25.5t-85 -11.5q-58 0 -135 18.5t-115 18.5q-45 0 -92.5 -12t-55.5 -12q-16 0 -23 8.5t-7 36.5z " />
<glyph unicode="&#x2000;" horiz-adv-x="930" />
<glyph unicode="&#x2001;" horiz-adv-x="1860" />
<glyph unicode="&#x2002;" horiz-adv-x="930" />
<glyph unicode="&#x2003;" horiz-adv-x="1860" />
<glyph unicode="&#x2004;" horiz-adv-x="620" />
<glyph unicode="&#x2005;" horiz-adv-x="465" />
<glyph unicode="&#x2006;" horiz-adv-x="310" />
<glyph unicode="&#x2007;" horiz-adv-x="310" />
<glyph unicode="&#x2008;" horiz-adv-x="232" />
<glyph unicode="&#x2009;" horiz-adv-x="372" />
<glyph unicode="&#x200a;" horiz-adv-x="103" />
<glyph unicode="&#x2010;" horiz-adv-x="671" d="M37 444q0 38 6.5 86.5t17.5 69.5q20 47 78 47h432q37 0 51.5 -13.5t14.5 -51.5q0 -35 -7.5 -84.5t-17.5 -71.5q-20 -47 -77 -47h-433q-37 0 -51 13t-14 52z" />
<glyph unicode="&#x2011;" horiz-adv-x="671" d="M37 444q0 38 6.5 86.5t17.5 69.5q20 47 78 47h432q37 0 51.5 -13.5t14.5 -51.5q0 -35 -7.5 -84.5t-17.5 -71.5q-20 -47 -77 -47h-433q-37 0 -51 13t-14 52z" />
<glyph unicode="&#x2012;" horiz-adv-x="671" d="M37 444q0 38 6.5 86.5t17.5 69.5q20 47 78 47h432q37 0 51.5 -13.5t14.5 -51.5q0 -35 -7.5 -84.5t-17.5 -71.5q-20 -47 -77 -47h-433q-37 0 -51 13t-14 52z" />
<glyph unicode="&#x2013;" horiz-adv-x="858" d="M31 444q0 35 7 84.5t17 71.5q20 47 80 47h621q37 0 51 -13t14 -52q0 -35 -7 -84.5t-17 -71.5q-20 -47 -78 -47h-621q-38 0 -52.5 13t-14.5 52z" />
<glyph unicode="&#x2014;" horiz-adv-x="1372" d="M31 444q0 35 7 84.5t17 71.5q20 47 80 47h1133q37 0 51 -13t14 -52q0 -37 -6 -86t-16 -70q-20 -47 -80 -47h-1133q-38 0 -52.5 13t-14.5 52z" />
<glyph unicode="&#x2018;" horiz-adv-x="405" d="M88 918q0 34 6 81q16 130 70 238l37 76q37 75 70.5 96t115.5 21q48 0 66 -11.5t18 -34.5q0 -17 -24.5 -117.5t-28.5 -150.5l-15 -149q-5 -49 -18.5 -71t-46.5 -32t-102 -10q-87 0 -117.5 13.5t-30.5 50.5z" />
<glyph unicode="&#x2019;" horiz-adv-x="405" d="M82 899q0 16 24.5 117t28.5 151l15 150q5 49 18.5 71t46.5 32t102 10q87 0 117.5 -13.5t30.5 -50.5q0 -36 -6 -82q-16 -128 -70 -237l-37 -76q-37 -75 -70 -96t-116 -21q-48 0 -66 11t-18 34z" />
<glyph unicode="&#x201a;" horiz-adv-x="411" d="M-55 -248q0 24 23.5 120.5t27.5 141.5l14 148q8 71 38.5 91.5t131.5 20.5q89 0 117.5 -15t28.5 -64q0 -21 -7 -86q-7 -88 -67 -215l-37 -78q-36 -76 -69 -95.5t-117 -19.5q-52 0 -68 12t-16 39z" />
<glyph unicode="&#x201c;" horiz-adv-x="825" d="M88 918q0 34 6 81q16 130 70 238l37 76q37 75 70.5 96t115.5 21q48 0 66 -11.5t18 -34.5q0 -17 -24.5 -117.5t-28.5 -150.5l-15 -149q-5 -49 -18.5 -71t-46.5 -32t-102 -10q-87 0 -117.5 13.5t-30.5 50.5zM508 918q0 34 6 81q16 130 70 238l37 76q37 75 70.5 96t115.5 21 q48 0 66 -11.5t18 -34.5q0 -17 -24.5 -117.5t-28.5 -150.5l-15 -149q-5 -49 -19 -71t-47 -32t-102 -10q-87 0 -117 13.5t-30 50.5z" />
<glyph unicode="&#x201d;" horiz-adv-x="825" d="M82 899q0 16 24.5 117t28.5 151l15 150q5 49 18.5 71t46.5 32t102 10q87 0 117.5 -13.5t30.5 -50.5q0 -36 -6 -82q-16 -128 -70 -237l-37 -76q-37 -75 -70 -96t-116 -21q-48 0 -66 11t-18 34zM502 899q0 16 24.5 117t28.5 151l14 150q5 49 19 71t47 32t102 10 q87 0 117.5 -13.5t30.5 -50.5q0 -36 -6 -82q-16 -128 -70 -237l-37 -76q-37 -75 -70 -96t-116 -21q-48 0 -66 11t-18 34z" />
<glyph unicode="&#x201e;" horiz-adv-x="815" d="M-55 -248q0 24 23.5 120.5t27.5 141.5l14 148q8 71 38.5 91.5t131.5 20.5q89 0 117.5 -15t28.5 -64q0 -21 -7 -86q-4 -56 -25.5 -114t-78.5 -179q-36 -76 -69 -95.5t-117 -19.5q-52 0 -68 12t-16 39zM348 -248q0 24 22.5 120.5t26.5 141.5l17 148q8 71 38.5 91.5 t129.5 20.5q90 0 117.5 -15t27.5 -64q0 -3 -1 -16.5t-2.5 -33.5t-2.5 -36q-3 -39 -13.5 -77.5t-20 -61.5t-33.5 -75.5t-36 -78.5q-40 -75 -71.5 -95t-114.5 -20q-52 0 -68 12t-16 39z" />
<glyph unicode="&#x2022;" horiz-adv-x="710" d="M43 459q0 95 16.5 177t44.5 126q33 56 101.5 76t181.5 20q155 0 217 -48t62 -179q0 -92 -16.5 -174t-43.5 -127q-35 -56 -104 -77.5t-180 -21.5q-154 0 -216.5 49t-62.5 179z" />
<glyph unicode="&#x2026;" horiz-adv-x="1214" d="M6 80q0 14 12 119q5 49 19 71.5t46.5 31.5t102.5 9q88 0 118 -15.5t30 -64.5q0 -33 -10 -118q-5 -49 -19.5 -72t-47.5 -32t-103 -9q-88 0 -118 15.5t-30 64.5zM401 80q0 5 13 119q5 49 19 71.5t46.5 31.5t102.5 9q88 0 117.5 -15.5t29.5 -64.5q0 -33 -10 -118 q-5 -49 -19.5 -72t-47.5 -32t-103 -9q-88 0 -118 15.5t-30 64.5zM799 80q0 14 12 119q5 49 19 71.5t46.5 31.5t102.5 9q88 0 117.5 -15.5t29.5 -64.5q0 -33 -10 -118q-5 -49 -19.5 -72t-47.5 -32t-103 -9q-88 0 -117.5 15.5t-29.5 64.5z" />
<glyph unicode="&#x202f;" horiz-adv-x="372" />
<glyph unicode="&#x2039;" horiz-adv-x="675" d="M41 444q0 42 10 107t23 94q12 22 30 40t32.5 27t43.5 25l377 207q27 17 53 17q47 0 47 -64q0 -77 -18 -133t-76 -96l-217 -146l-2 -16l186 -152q32 -25 43 -45.5t11 -62.5q0 -178 -68 -178q-17 0 -49 16l-334 207q-27 17 -40 27t-27.5 27.5t-19.5 41t-5 57.5z" />
<glyph unicode="&#x203a;" horiz-adv-x="675" d="M27 131q0 79 18.5 135t77.5 96l215 144l2 16l-184 154q-32 26 -44 46t-12 60q0 179 68 179q24 0 51 -17l332 -205q51 -32 71.5 -61t20.5 -94q0 -45 -9.5 -107.5t-23.5 -91.5q-17 -33 -40.5 -52.5t-65.5 -41.5l-377 -207q-32 -16 -51 -16q-49 0 -49 63z" />
<glyph unicode="&#x205f;" horiz-adv-x="465" />
<glyph unicode="&#x20ac;" d="M45 449q0 24 31 120q11 33 41 33h37l10 82h-68q-30 0 -30 27t30 120q11 33 41 33h53q24 114 64.5 196t85 126.5t106.5 69.5t112.5 31.5t119.5 6.5q149 0 283 -32q19 -5 27.5 -19.5t8.5 -52.5q0 -61 -9 -105.5t-21.5 -64t-26.5 -19.5q-6 0 -73.5 8.5t-141.5 8.5 q-99 0 -147 -29.5t-74 -124.5h233q33 0 33 -26q0 -16 -33 -123q-11 -31 -41 -31h-221q-2 -15 -4 -41.5t-4 -40.5h225q33 0 33 -27q0 -18 -33 -120q-11 -33 -41 -33h-196q0 -99 46 -129.5t150 -30.5q65 0 134 10.5t83 10.5q33 0 33 -56q0 -112 -18 -153.5t-49 -50.5 q-120 -35 -295 -35q-75 0 -129 7t-108.5 29.5t-88.5 61t-55 105.5t-21 159q0 45 2 72h-63q-31 0 -31 27z" />
<glyph unicode="&#x2122;" horiz-adv-x="1812" d="M90 1114q0 100 19 135t59 35h567q30 0 41.5 -14t11.5 -53q0 -99 -18 -133.5t-59 -34.5h-148l-49 -474q-6 -55 -30.5 -69t-114.5 -14q-81 0 -106 10.5t-25 48.5q0 16 8 82l43 416h-146q-30 0 -41.5 13.5t-11.5 51.5zM809 553q0 13 8 76l60 549q5 48 20 68.5t53.5 29 t124.5 8.5q99 0 132 -20t53 -95l55 -225l100 217q38 78 81 100.5t146 22.5q96 0 129 -15.5t33 -62.5q0 -30 -6 -76l-59 -552q-6 -56 -31.5 -71t-114.5 -15q-80 0 -105.5 11t-25.5 50q0 45 41 324h-16l-86 -168q-26 -51 -47 -64.5t-78 -13.5q-46 0 -61.5 14t-34.5 72l-50 160 h-16q-6 -83 -29 -299q-6 -57 -30.5 -71.5t-114.5 -14.5q-79 0 -105 11t-26 50z" />
<glyph unicode="&#xe000;" horiz-adv-x="1013" d="M0 0v1014h1014v-1014h-1014z" />
</font>
</defs>
</svg>
