<?xml version="1.0" encoding="utf-8"?>
<!-- Generator: Adobe Illustrator 16.0.0, SVG Export Plug-In . SVG Version: 6.00 Build 0)  -->
<!DOCTYPE svg PUBLIC "-//W3C//DTD SVG 1.1//EN" "http://www.w3.org/Graphics/SVG/1.1/DTD/svg11.dtd">
<svg version="1.1" id="Layer_1" xmlns="http://www.w3.org/2000/svg" xmlns:xlink="http://www.w3.org/1999/xlink" x="0px" y="0px"
	 width="123.602px" height="62.671px" viewBox="0 0 123.602 62.671" enable-background="new 0 0 123.602 62.671"
	 xml:space="preserve">
<g>
	<path fill="#FFFFFF" d="M2.344,60.261c1.557,1.592,3.481,2.41,5.758,2.41h97.354c2.21,0,4.084-0.803,5.691-2.41
		c1.606-1.606,2.411-3.482,2.411-5.691V43.588h6.293c2.075,0.001,3.75-1.606,3.75-3.683V22.497c0-2.075-1.675-3.683-3.75-3.683
		h-6.293V8.102c0-2.21-0.803-4.085-2.411-5.693C109.54,0.803,107.665,0,105.457,0H8.102C5.825,0,3.867,0.787,2.344,2.344
		C0.788,3.934,0,5.892,0,8.101v46.468C0,56.778,0.82,58.704,2.344,60.261L2.344,60.261z M7.433,8.102
		c0-0.468,0.201-0.669,0.669-0.669h97.354c0.269,0,0.736,0.401,0.736,0.669v46.467c0,0.268-0.468,0.669-0.736,0.669H8.102
		c-0.468,0-0.669-0.199-0.669-0.669V8.102z M7.433,8.102"/>
	<rect x="13.726" y="13.057" fill="#91C73D" width="24.976" height="36.558"/>
	<rect x="44.059" y="13.057" fill="#91C73D" width="25.241" height="36.558"/>
	<rect x="75.057" y="13.057" fill="#91C73D" width="24.909" height="36.558"/>
</g>
</svg>
